<?xml version="1.0" encoding="UTF-8"?> <svg xmlns="http://www.w3.org/2000/svg" width="193" height="40" viewBox="0 0 193 40" fill="none"> <path d="M40.5664 19.998L20.2505 0L14.6699 5.49431L29.4034 20.0002L14.6699 34.5057L20.2505 40L40.5664 20.002L40.5646 20.0002L40.5664 19.998Z" fill="#2B74FC"></path> <path d="M11.1352 19.994L18.849 12.4098L13.2825 6.93701L0 19.9919L0.00216116 19.994L0 19.9958L13.2945 33.0625L18.861 27.5897L11.1352 19.994Z" fill="#1AE9BE"></path> <path d="M170.569 10.0605V16.571C169.839 15.1034 167.745 14.0417 165.555 14.0417C161.176 14.0417 158.13 17.414 158.13 22.1915C158.13 26.9376 161.144 30.2787 165.492 30.2787C167.618 30.2787 169.839 29.2483 170.759 27.7183V29.9352H174.504V10.0605H170.569ZM166.253 26.9064C163.62 26.9064 161.938 24.9705 161.938 22.1602C161.938 19.4749 163.429 17.414 166.222 17.414C168.951 17.414 170.601 19.3188 170.601 22.1602C170.601 24.9705 168.887 26.9064 166.253 26.9064V26.9064Z" fill="#000003"></path> <path d="M117.199 14.0523C114.948 14.021 113.395 15.0228 112.158 16.6508V10.0605H108.417V29.9878H112.158V22.1922C112.158 19.3432 113.648 17.4022 116.311 17.4022C118.752 17.4022 119.165 19.1241 119.165 21.0965V29.9878H122.874V20.439C122.874 16.4003 120.94 14.0523 117.199 14.0523Z" fill="#000003"></path> <path d="M73.0442 13.9878C71.2547 13.9878 69.8168 14.9937 69.1138 16.534V14.2707H65.3433V29.9878H69.1138V21.3689C69.1138 19.137 70.2035 17.2566 72.3997 17.2566C72.9748 17.2566 73.4276 17.5081 73.9389 17.8225L76.1117 14.9619C75.1851 14.2393 74.0986 13.9878 73.0442 13.9878Z" fill="#000003"></path> <path d="M101.952 20.8801C100.334 20.1909 97.9538 19.8463 97.9538 18.6244C97.9538 17.8412 98.7154 17.1833 99.9847 17.1833C101.095 17.1833 101.762 17.5279 103.031 18.5618L105.443 16.2121C104.459 15.2409 102.745 13.9878 99.9847 13.9878C97.1922 13.9878 94.3044 15.5542 94.3044 18.6244C94.3044 21.6007 96.7479 22.5092 98.9692 23.3237C100.778 23.9503 102.492 24.1696 102.492 25.5481C102.492 26.5193 101.508 27.1405 100.143 27.1405C98.6836 27.1405 97.2239 26.8325 95.3516 24.7962L92.7812 27.2711C94.8756 29.3388 97.2556 30.2787 100.143 30.2787C103.444 30.2787 106.204 28.1797 106.204 25.7047C106.236 23.543 104.999 22.1646 101.952 20.8801Z" fill="#000003"></path> <path d="M63.7215 13.7548V10.0605H50.5928V29.9878H54.6569V21.9314H62.2136V18.3884H54.6569V13.7548H63.7215Z" fill="#000003"></path> <path d="M133.068 26.9579C130.464 26.9579 128.718 24.7335 128.718 22.0393C128.718 19.533 130.369 17.3086 133.068 17.3086C134.528 17.3086 135.64 17.8412 136.561 19.0004L139.101 16.776C137.894 15.2409 135.83 13.9878 133.068 13.9878C128.146 13.9878 124.939 17.6532 124.939 22.2272C124.939 26.6759 128.083 30.2787 133.195 30.2787C135.799 30.2787 137.894 29.0569 139.101 27.5218L136.529 25.2661C135.608 26.4566 134.528 26.9579 133.068 26.9579Z" fill="#000003"></path> <path d="M148.204 13.9878C143.431 13.9878 139.985 17.3086 139.985 22.1019C139.985 26.8952 143.368 30.2787 148.172 30.2787C152.945 30.2787 156.359 26.8639 156.359 22.1019C156.359 17.34 152.977 13.9878 148.204 13.9878ZM148.172 26.9579C145.58 26.9579 143.747 24.9528 143.747 22.1019C143.715 19.3137 145.549 17.3086 148.204 17.3086C150.764 17.3086 152.598 19.3137 152.598 22.1019C152.598 24.9528 150.764 26.9579 148.172 26.9579V26.9579Z" fill="#000003"></path> <path d="M192.5 22.2272C192.5 17.7989 189.726 13.9878 184.765 13.9878C180.182 13.9878 176.864 17.3713 176.864 22.1646C176.864 26.9265 180.056 30.2787 184.828 30.2787C187.799 30.2787 190.2 29.1509 191.939 27.3025L189.41 25.1095C188.241 26.4253 186.819 26.9579 185.049 26.9579C182.805 26.9579 180.711 25.5343 180.561 23.543H192.417C192.513 22.9791 192.5 22.7285 192.5 22.2272ZM180.571 20.4728C180.824 18.8437 182.363 17.3086 184.859 17.3086C187.23 17.3086 188.539 18.8437 188.728 20.4728H180.571Z" fill="#000003"></path> <path d="M91.4527 22.2272C91.4527 17.7989 88.6795 13.9878 83.7177 13.9878C79.1353 13.9878 75.8169 17.3713 75.8169 22.1646C75.8169 26.9265 79.0088 30.2787 83.781 30.2787C86.7517 30.2787 89.1535 29.1509 90.8917 27.3025L88.3635 25.1095C87.1941 26.4253 85.772 26.9579 84.0022 26.9579C81.7583 26.9579 79.664 25.5343 79.5145 23.543H91.3711C91.466 22.9791 91.4527 22.7285 91.4527 22.2272ZM79.524 20.4728C79.7768 18.8437 81.3159 17.3086 83.8126 17.3086C86.1828 17.3086 87.4918 18.8437 87.6814 20.4728H79.524Z" fill="#000003"></path> </svg> 