<?xml version="1.0" encoding="UTF-8"?> <svg xmlns="http://www.w3.org/2000/svg" width="317" height="317" viewBox="0 0 317 317" fill="none"> <circle cx="158.5" cy="158.5" r="158.5" fill="white"></circle> <path fill-rule="evenodd" clip-rule="evenodd" d="M150 18C76.3215 22.6411 18 83.8684 18 158.717C18 233.566 76.3215 294.794 150 299.435V277.382C88.4823 272.782 40 221.412 40 158.717C40 96.0232 88.4823 44.6527 150 40.0526V18Z" fill="#5BDC00"></path> <path fill-rule="evenodd" clip-rule="evenodd" d="M166 18C239.679 22.6411 298 83.8684 298 158.717C298 233.566 239.679 294.794 166 299.435V277.382C227.518 272.782 276 221.412 276 158.717C276 96.0233 227.518 44.6527 166 40.0526V18Z" fill="#726EE8"></path> <path d="M149.959 154.359C150.234 154.359 150.458 154.377 150.63 154.411C150.837 154.411 151.267 154.428 151.921 154.463V169.544C150.991 169.441 150.165 169.372 149.442 169.338C148.719 169.303 148.134 169.286 147.686 169.286C141.763 169.286 137.786 171.214 135.755 175.071C134.619 177.24 134.051 180.58 134.051 185.091V212H119.227V155.702H133.276V165.516C135.548 161.762 137.528 159.197 139.215 157.82C141.97 155.513 145.551 154.359 149.959 154.359Z" fill="#5BDC00"></path> <path d="M179.634 166.342C176.225 166.342 173.574 167.409 171.68 169.544C169.821 171.679 168.65 174.572 168.168 178.221H191.049C190.808 174.33 189.62 171.386 187.485 169.389C185.384 167.358 182.768 166.342 179.634 166.342ZM179.634 154.204C184.317 154.204 188.535 155.083 192.288 156.839C196.041 158.595 199.14 161.367 201.585 165.154C203.789 168.494 205.218 172.368 205.872 176.775C206.251 179.358 206.406 183.076 206.337 187.931H167.806C168.013 193.578 169.786 197.538 173.126 199.811C175.158 201.223 177.603 201.928 180.461 201.928C183.491 201.928 185.953 201.068 187.846 199.346C188.879 198.416 189.792 197.125 190.584 195.472H205.614C205.235 198.812 203.496 202.204 200.397 205.647C195.577 211.122 188.828 213.859 180.151 213.859C172.989 213.859 166.67 211.552 161.195 206.938C155.721 202.324 152.983 194.818 152.983 184.419C152.983 174.675 155.445 167.203 160.369 162.004C165.327 156.804 171.749 154.204 179.634 154.204Z" fill="#5BDC00"></path> <path d="M218.245 157.923H233.895V173.315H218.245V157.923ZM218.245 196.609H233.895V212H218.245V196.609Z" fill="#5BDC00"></path> <path d="M183.5 130L221 97.5L183.5 62V80.5C183.5 80.5 120 76.5 90.9999 118C62 159.5 74 219 74 219H79.5C79.5 219 68.5 161.5 97.5 130C126.5 98.5 183.5 108.5 183.5 108.5V130Z" fill="#726EE8"></path> </svg> 