<?xml version="1.0" encoding="UTF-8"?> <svg xmlns="http://www.w3.org/2000/svg" width="367" height="368" viewBox="0 0 367 368" fill="none"> <path d="M175.847 187.712C173.972 191.707 172.015 196.11 169.895 200.839C162.476 217.473 154.404 237.775 151.387 250.821C150.164 256.284 149.593 261.991 149.674 267.617C149.674 270.145 149.837 272.754 150.001 275.445C160.437 279.277 171.689 281.397 183.43 281.397C193.867 281.397 204.14 279.684 214.006 276.423C211.642 274.303 209.522 272.02 207.646 269.656C194.601 253.104 187.426 228.724 175.847 187.712ZM127.741 105.116C101.894 123.298 86.4841 152.896 86.4841 184.45C86.5656 215.516 101.487 244.706 126.6 262.888C132.552 238.101 147.473 215.434 169.895 169.937C168.509 166.268 167.042 162.273 165.329 158.033C159.133 142.541 150.164 124.44 142.173 116.286C137.933 111.883 133.041 108.214 127.741 105.116ZM267.902 295.665C255.1 294.035 244.419 292.159 235.206 288.898C199.085 306.754 156.279 304.716 121.952 283.435C87.7071 262.154 66.8339 224.729 66.8339 184.45C66.8339 150.858 81.2657 118.977 106.623 96.8809C100.019 95.2501 93.17 94.4348 86.4025 94.4348C52.1574 94.7609 16.1185 113.677 1.03435 164.8C-0.351757 172.22 0.0559235 177.846 0.0559235 184.532C0.0559235 285.881 82.1626 367.988 183.512 367.988C245.561 367.988 300.353 337.167 333.538 289.958C315.6 294.442 298.314 296.562 283.556 296.644C277.93 296.562 272.794 296.318 267.902 295.665ZM233.493 260.197C234.635 260.768 237.244 261.665 240.75 262.643C265.7 244.461 280.458 215.434 280.54 184.45C280.377 130.881 237.081 87.5042 183.512 87.4227C173.157 87.4227 162.883 89.1349 153.099 92.3964C172.831 114.819 182.289 146.944 191.421 182.004V182.086C191.502 182.167 194.438 191.789 199.33 204.671C204.304 217.473 211.397 233.535 219.062 245.113C224.117 252.941 229.661 258.485 233.493 260.197ZM183.43 0.994559C124.317 0.913023 68.7907 29.4506 34.3826 77.6384C51.6682 66.7941 69.3615 62.8804 84.8533 63.0434C106.134 63.125 122.849 69.7294 130.921 74.2954C132.878 75.3554 134.753 76.6599 136.547 77.8014C172.586 61.9835 214.169 65.408 247.11 86.9335C280.05 108.459 300.027 145.069 300.027 184.45C300.027 215.597 287.552 245.521 265.292 267.373C270.592 267.943 276.137 268.351 281.926 268.269C302.228 268.269 324.243 263.785 340.632 250.005C351.394 240.955 360.363 227.665 365.337 207.851C366.397 200.187 366.886 192.359 366.886 184.45C366.886 83.1013 284.78 0.994559 183.43 0.994559Z" fill="black"></path> </svg> 