<?xml version="1.0" encoding="UTF-8"?> <svg xmlns="http://www.w3.org/2000/svg" width="1498" height="124" viewBox="0 0 1498 124" fill="none"> <rect x="686.77" y="-0.000488281" width="124" height="123.998" fill="#000003"></rect> <g clip-path="url(#clip0_986:2006)"> <path d="M746.923 62.1561C746.583 62.8931 746.22 63.7084 745.833 64.5743C744.471 67.6431 742.976 71.3834 742.422 73.7827C742.203 74.7943 742.093 75.8377 742.104 76.8726C742.104 77.3351 742.137 77.8187 742.169 78.3151C744.085 79.0184 746.163 79.4154 748.33 79.4154C750.245 79.4154 752.146 79.105 753.963 78.503C753.534 78.1165 753.137 77.6984 752.786 77.2591C750.376 74.1903 749.046 69.7044 746.923 62.1561V62.1561ZM738.055 46.9411C733.292 50.2865 730.466 55.7334 730.454 61.5499C730.464 67.2692 733.216 72.6485 737.846 76.0045C738.946 71.4405 741.696 67.2587 745.821 58.8782C745.567 58.2045 745.295 57.4695 744.984 56.6881C743.842 53.8305 742.19 50.5062 740.718 49.0003C739.934 48.1872 739.035 47.505 738.055 46.9411ZM763.883 82.0428C761.52 81.7471 759.56 81.3944 757.857 80.7903C751.2 84.0787 743.316 83.7049 736.999 79.7914C730.686 75.8736 726.846 68.9779 726.846 61.552C726.846 55.3702 729.507 49.4861 734.173 45.4162C732.95 45.1184 731.697 44.9622 730.441 44.9622C724.138 45.0192 717.496 48.504 714.721 57.9215C714.467 59.2837 714.535 60.3186 714.535 61.552C714.535 80.2201 729.659 95.3442 748.328 95.3442C759.756 95.3442 769.845 89.6671 775.96 80.9762C772.663 81.802 769.471 82.199 766.753 82.2096C765.731 82.2096 764.774 82.1526 763.881 82.0428H763.883ZM757.536 75.4976C757.747 75.5969 758.221 75.7743 758.869 75.9475C763.467 72.5936 766.185 67.246 766.196 61.5499C766.172 51.6826 758.187 43.6971 748.319 43.6844C746.416 43.6844 744.524 43.9949 742.71 44.5968C746.34 48.7215 748.089 54.6415 749.772 61.0979V61.1085C749.783 61.1191 750.322 62.8995 751.234 65.2755C752.146 67.6409 753.456 70.5893 754.875 72.7246C755.811 74.1628 756.833 75.1893 757.536 75.4955V75.4976ZM748.319 27.7577C737.43 27.7471 727.199 33.0039 720.863 41.8723C724.054 39.8807 727.309 39.1541 730.158 39.1774C734.084 39.1879 737.163 40.4087 738.648 41.245C739.012 41.4414 739.352 41.6738 739.685 41.8955C746.317 38.9788 753.986 39.6167 760.056 43.5767C766.126 47.5367 769.79 54.3036 769.79 61.552C769.79 67.2946 767.492 72.7943 763.397 76.8324C764.367 76.9423 765.399 77.0077 766.455 76.9951C770.198 76.9951 774.245 76.1693 777.269 73.6306C779.248 71.9579 780.91 69.5164 781.823 65.8647C782.011 64.4455 782.11 63.0178 782.11 61.5541C782.11 42.8861 766.986 27.7619 748.317 27.7619L748.319 27.7577Z" fill="white"></path> </g> <rect x="1201.85" y="0.000488281" width="124" height="123.998" fill="#000003"></rect> <rect x="1231.77" y="29.9277" width="64.1429" height="64.1419" fill="white"></rect> <path fill-rule="evenodd" clip-rule="evenodd" d="M1241.84 47.2628V60.1551H1243.68V54.343H1249.75V60.1551H1251.59V47.2628H1249.75V52.7584H1243.68V47.2628H1241.84ZM1242.04 47.4639V59.9539H1243.48V59.9539H1242.04V47.4639H1242.04ZM1249.95 52.9595H1249.95V47.4639H1249.95V52.9595ZM1251.39 59.9539H1249.95V54.1419H1243.48V54.1419H1249.95V59.9539H1251.39V59.9539ZM1257.27 48.8474V60.1551H1259.1V48.8474H1263.24V47.2628H1253.12V48.8474H1257.27ZM1257.47 59.9539H1258.9V59.9539H1257.47V48.6463H1253.32V47.4639H1253.32V48.6463H1257.47V59.9539ZM1258.9 48.6463H1263.03V48.6463H1258.9V48.6463ZM1266.48 50.1548L1270.18 56.9743H1271.39L1275.09 50.1246V60.1551H1276.92V47.2628H1274.88L1270.89 54.5903L1266.83 47.2628H1264.77V60.1551H1266.48V50.1548ZM1275.3 59.9539V49.3291L1275.3 49.329V59.9539H1276.72V59.9539H1275.3ZM1264.97 47.4639V59.9539H1266.28V59.9539H1264.97V47.4639H1264.97ZM1270.3 56.7732L1266.28 49.3625V49.3624L1270.3 56.7731H1271.27L1271.27 56.7732H1270.3ZM1279.8 47.2628V60.1551H1287.13V58.5705H1281.64V47.2628H1279.8ZM1280 47.4639V59.9539H1286.93V59.9539H1280V47.4639H1280ZM1258.53 76.7497L1258.71 76.8402L1258.71 76.8415L1258.71 76.8436L1258.7 76.8502C1258.7 76.8557 1258.7 76.8632 1258.69 76.8726C1258.68 76.8914 1258.67 76.918 1258.65 76.9512C1258.6 77.0175 1258.54 77.1103 1258.46 77.2208C1258.29 77.4417 1258.03 77.7335 1257.65 78.0246C1256.89 78.6087 1255.69 79.1823 1253.88 79.1823C1251.86 79.1823 1250.29 78.4451 1249.23 77.2317C1248.18 76.0218 1247.64 74.3559 1247.64 72.5197C1247.64 70.6617 1248.24 69.0203 1249.32 67.8413C1250.41 66.6605 1251.97 65.957 1253.88 65.957C1255.71 65.957 1256.9 66.5084 1257.63 67.0732C1257.99 67.3545 1258.24 67.6369 1258.4 67.8512C1258.48 67.9583 1258.53 68.0485 1258.57 68.1131C1258.59 68.1454 1258.6 68.1714 1258.61 68.1899C1258.62 68.1991 1258.62 68.2065 1258.62 68.2119L1258.63 68.2185L1258.63 68.2207L1258.63 68.2221L1258.45 68.3064C1258.56 68.2545 1258.6 68.2346 1258.62 68.2269C1258.63 68.2221 1258.63 68.2221 1258.63 68.2221L1258.65 68.2622V69.4401H1257.26L1257.21 69.3059L1257.21 69.3038L1257.21 69.2921C1257.2 69.2811 1257.2 69.2636 1257.19 69.2407C1257.17 69.1949 1257.13 69.1275 1257.08 69.0455C1256.99 68.8814 1256.83 68.6602 1256.58 68.4382C1256.1 67.9977 1255.28 67.5416 1253.91 67.5416C1252.49 67.5416 1251.38 68.0882 1250.63 68.9737C1249.88 69.8628 1249.46 71.1084 1249.46 72.5197C1249.46 73.9626 1249.9 75.2295 1250.67 76.1322C1251.43 77.0319 1252.54 77.5811 1253.91 77.5811C1255.26 77.5811 1256.1 77.1101 1256.61 76.6504C1256.87 76.4191 1257.04 76.1882 1257.15 76.0166C1257.21 75.9309 1257.24 75.8602 1257.27 75.812C1257.28 75.7879 1257.29 75.7695 1257.29 75.7577L1257.3 75.7451L1257.3 75.7431L1257.35 75.616H1258.73V76.7975L1258.71 76.8402C1258.71 76.8402 1258.71 76.8402 1258.69 76.8313C1258.67 76.821 1258.63 76.7985 1258.53 76.7497ZM1257.49 75.8171H1257.49C1257.49 75.8171 1257.34 76.1766 1256.96 76.5881C1257.34 76.1795 1257.48 75.8221 1257.49 75.8171ZM1251.12 68.2282C1251.86 67.6664 1252.79 67.3405 1253.91 67.3405C1256.74 67.3405 1257.4 69.239 1257.4 69.239H1258.45V69.239H1257.4C1257.4 69.239 1256.74 67.3405 1253.91 67.3405C1252.79 67.3405 1251.86 67.6664 1251.12 68.2282ZM1250.11 67.3876C1248.66 68.5256 1247.84 70.3642 1247.84 72.5197C1247.84 76.1169 1249.94 78.9812 1253.88 78.9812C1255.18 78.9812 1256.15 78.6798 1256.86 78.2986C1256.15 78.6798 1255.18 78.9812 1253.88 78.9812C1249.94 78.9812 1247.84 76.1168 1247.84 72.5197C1247.84 70.3641 1248.66 68.5256 1250.11 67.3876ZM1266.91 78.1374C1266.21 78.6812 1265.25 78.9812 1264.13 78.9812C1261.89 78.9812 1260.55 77.8821 1260.06 76.7163V75.7838H1260.06V76.7164C1260.55 77.8821 1261.89 78.9812 1264.13 78.9812C1265.25 78.9812 1266.21 78.6812 1266.91 78.1374ZM1266 77.2118C1266.46 76.8288 1266.74 76.2667 1266.74 75.5506C1266.74 74.4348 1266.15 73.7354 1264.26 73.2025L1263.52 72.986C1261.22 72.3365 1260.24 71.2207 1260.24 69.4721C1260.24 68.6278 1260.52 67.8884 1261.05 67.3236C1260.52 67.8884 1260.24 68.6278 1260.24 69.4722C1260.24 71.2208 1261.22 72.3365 1263.52 72.986L1264.26 73.2025C1266.15 73.7354 1266.74 74.4349 1266.74 75.5506C1266.74 76.2667 1266.46 76.8288 1266 77.2118ZM1267.7 69.2556V69.2557H1266.68C1266.46 68.3064 1265.8 67.3405 1264.08 67.3405C1263.49 67.3405 1263.01 67.4623 1262.63 67.6682C1263.01 67.4622 1263.49 67.3405 1264.08 67.3405C1265.8 67.3405 1266.46 68.3064 1266.68 69.2556H1267.7ZM1260.87 71.7773C1261.43 72.394 1262.29 72.8493 1263.46 73.1793L1264.2 73.3956L1264.21 73.396C1265.14 73.6593 1265.72 73.9558 1266.07 74.3009C1266.41 74.6361 1266.54 75.0339 1266.54 75.5506C1266.54 76.2101 1266.29 76.7142 1265.88 77.0571C1265.46 77.4035 1264.86 77.5977 1264.16 77.5977C1263.38 77.5977 1262.76 77.4027 1262.29 77.0761C1261.82 76.7494 1261.49 76.2821 1261.29 75.7159L1261.24 75.5827H1259.86V76.7574L1259.87 76.7952C1260.4 78.0431 1261.82 79.1823 1264.13 79.1823C1265.34 79.1823 1266.39 78.8433 1267.14 78.2131C1267.9 77.58 1268.33 76.665 1268.33 75.5506C1268.33 74.5419 1268.04 73.7412 1267.46 73.1137C1266.88 72.492 1266.04 72.0577 1264.98 71.7444L1264.98 71.744L1264.02 71.4451L1264.02 71.4443C1263.3 71.2298 1262.75 70.9898 1262.37 70.6654C1262.01 70.3508 1261.81 69.9486 1261.81 69.3722C1261.81 68.8838 1262 68.4314 1262.37 68.0995C1262.73 67.7671 1263.3 67.5416 1264.08 67.5416C1264.9 67.5416 1265.44 67.7709 1265.81 68.0928C1266.18 68.417 1266.38 68.8531 1266.48 69.3001L1266.52 69.4568H1267.9V68.296L1267.9 68.2698C1267.71 67.5919 1267.31 67.0088 1266.68 66.5977C1266.05 66.1881 1265.22 65.957 1264.16 65.957C1262.91 65.957 1261.88 66.3135 1261.16 66.9389C1260.43 67.5662 1260.04 68.4514 1260.04 69.4722C1260.04 70.3873 1260.3 71.155 1260.87 71.7773ZM1276.19 78.4534C1275.55 78.7962 1274.77 78.9812 1273.89 78.9812C1271.65 78.9812 1270.31 77.8821 1269.82 76.7163V75.7838H1269.82V76.7164C1270.31 77.8821 1271.65 78.9812 1273.89 78.9812C1274.77 78.9812 1275.55 78.7962 1276.19 78.4534ZM1276.15 76.7778C1276.38 76.4434 1276.5 76.0318 1276.5 75.5506C1276.5 74.4348 1275.91 73.7354 1274.02 73.2025L1273.28 72.986C1270.98 72.3365 1270 71.2207 1270 69.4721C1270 68.6309 1270.28 67.894 1270.8 67.3299C1270.28 67.894 1270 68.631 1270 69.4722C1270 71.2208 1270.98 72.3365 1273.28 72.986L1274.02 73.2025C1275.91 73.7354 1276.5 74.4349 1276.5 75.5506C1276.5 76.0318 1276.38 76.4434 1276.15 76.7778ZM1277.46 69.2556V69.2557H1276.44C1276.22 68.3064 1275.56 67.3405 1273.84 67.3405C1273.26 67.3405 1272.79 67.4575 1272.41 67.6562C1272.79 67.4575 1273.26 67.3405 1273.84 67.3405C1275.56 67.3405 1276.22 68.3064 1276.44 69.2556H1277.46ZM1270.63 71.7773C1271.19 72.394 1272.05 72.8493 1273.22 73.1793L1273.96 73.3956L1273.97 73.396C1274.9 73.6593 1275.48 73.9558 1275.83 74.3009C1276.17 74.6361 1276.3 75.0339 1276.3 75.5506C1276.3 76.2101 1276.05 76.7142 1275.63 77.0571C1275.22 77.4035 1274.62 77.5977 1273.92 77.5977C1273.14 77.5977 1272.52 77.4027 1272.05 77.0761C1271.58 76.7494 1271.25 76.2821 1271.05 75.7159L1271 75.5827H1269.62V76.7574L1269.63 76.7952C1270.16 78.0431 1271.58 79.1823 1273.89 79.1823C1275.1 79.1823 1276.15 78.8433 1276.9 78.2131C1277.65 77.58 1278.09 76.665 1278.09 75.5506C1278.09 74.5419 1277.8 73.7412 1277.22 73.1137C1276.64 72.492 1275.8 72.0577 1274.74 71.7444L1274.74 71.744L1273.78 71.4451L1273.78 71.4443C1273.06 71.2298 1272.51 70.9898 1272.13 70.6654C1271.77 70.3508 1271.57 69.9486 1271.57 69.3722C1271.57 68.8838 1271.76 68.4314 1272.13 68.0995C1272.49 67.7671 1273.06 67.5416 1273.84 67.5416C1274.66 67.5416 1275.2 67.7709 1275.57 68.0928C1275.93 68.417 1276.14 68.8531 1276.24 69.3001L1276.27 69.4568H1277.66V68.296L1277.66 68.2698C1277.47 67.5919 1277.07 67.0088 1276.44 66.5977C1275.81 66.1881 1274.97 65.957 1273.92 65.957C1272.67 65.957 1271.64 66.3135 1270.92 66.9389C1270.19 67.5662 1269.8 68.4514 1269.8 69.4722C1269.8 70.3873 1270.05 71.155 1270.63 71.7773Z" fill="black"></path> <rect x="858.46" y="-0.000488281" width="124" height="123.998" fill="#000003"></rect> <path fill-rule="evenodd" clip-rule="evenodd" d="M952.597 28.9651H887.426V94.1357H952.597V28.9651ZM899.042 70.6039C898.581 70.6039 898.189 70.4504 897.867 70.1432C897.544 69.8283 897.383 69.4542 897.383 69.0212C897.383 68.5802 897.544 68.2023 897.867 67.8873C898.189 67.5723 898.581 67.4148 899.042 67.4148C899.51 67.4148 899.906 67.5723 900.228 67.8873C900.558 68.2023 900.724 68.5802 900.724 69.0212C900.724 69.4542 900.558 69.8283 900.228 70.1432C899.906 70.4504 899.51 70.6039 899.042 70.6039ZM914.468 70.3425H917.463V53.4046H914.825V64.3185C914.825 65.3895 914.863 66.1494 914.94 66.5982H914.894C914.802 66.4093 914.595 66.0628 914.272 65.5588L906.646 53.4046H903.454V70.3425H906.104V59.2395C906.104 58.0506 906.073 57.2749 906.012 56.9126H906.081C906.212 57.2512 906.377 57.5781 906.576 57.8931L914.468 70.3425ZM930.366 70.3425H921.092V53.4046H929.998V55.7906H923.834V60.5861H929.514V62.9602H923.834V67.9684H930.366V70.3425ZM938.8 55.7906H943.546V53.4046H931.323V55.7906H936.058V70.3425H938.8V55.7906Z" fill="white"></path> <rect x="343.385" y="0.00146484" width="124" height="123.998" fill="#000003"></rect> <path d="M405.38 98.0499C405.377 98.0499 405.374 98.0499 405.371 98.0499C404.368 98.0499 403.43 97.7764 402.625 97.2957L402.652 97.3107L393.962 92.0912C392.666 91.352 393.299 91.0936 393.725 90.9404C395.223 90.4626 396.524 89.8436 397.726 89.0834L397.655 89.1255C397.737 89.0864 397.832 89.0654 397.933 89.0654C398.069 89.0654 398.196 89.1074 398.303 89.1795L398.3 89.1765L404.974 93.2C405.09 93.2631 405.229 93.3022 405.377 93.3022C405.525 93.3022 405.664 93.2631 405.785 93.197L405.779 93.2L431.798 77.9444C432.037 77.7941 432.194 77.5297 432.194 77.2292C432.194 77.2262 432.194 77.2262 432.194 77.2232V46.7329C432.191 46.4295 432.031 46.162 431.792 46.0148L431.789 46.0118L405.779 30.7712C405.664 30.7051 405.525 30.666 405.38 30.666C405.235 30.666 405.096 30.7051 404.974 30.7742L404.977 30.7712L378.974 46.0148C378.728 46.162 378.565 46.4295 378.562 46.736V77.2322C378.562 77.5357 378.725 77.7971 378.968 77.9354L378.971 77.9384L386.101 82.1211C389.968 84.0863 392.335 81.7726 392.335 79.4498V49.3352C392.335 48.9145 392.672 48.5719 393.086 48.5719H393.095H396.394H396.397C396.811 48.5719 397.149 48.9115 397.149 49.3352V79.4498C397.149 84.6933 394.338 87.7011 389.444 87.7011C389.385 87.7011 389.317 87.7042 389.249 87.7042C387.104 87.7042 385.101 87.0882 383.403 86.0214L376.627 82.061C374.982 81.0754 373.899 79.2876 373.899 77.2382V46.736C373.902 44.6927 374.988 42.9108 376.604 41.9432L376.63 41.9282L402.652 26.6575C403.442 26.2098 404.383 25.9484 405.386 25.9484C406.389 25.9484 407.332 26.2128 408.149 26.6725L408.119 26.6575L434.138 41.9282C435.78 42.9108 436.863 44.6927 436.869 46.736V77.2352C436.866 79.2815 435.78 81.0694 434.162 82.043L434.135 82.058L408.122 97.3167C407.341 97.7824 406.4 98.0559 405.394 98.0559C405.389 98.0559 405.38 98.0559 405.374 98.0559L405.38 98.0499Z" fill="white"></path> <path d="M413.419 77.0462C402.034 77.0462 399.646 71.7397 399.646 67.2835V67.2804C399.646 66.8598 399.981 66.5202 400.395 66.5202H400.401H403.765H403.768C404.144 66.5202 404.454 66.7997 404.513 67.1633V67.1663C405.019 70.6459 406.534 72.4007 413.419 72.4007C418.902 72.4007 421.23 71.1417 421.23 68.1879C421.23 66.4842 420.57 65.2221 412.052 64.3748C404.934 63.6536 400.531 62.061 400.531 56.2767C400.531 50.9461 404.957 47.7639 412.366 47.7639C420.703 47.7639 424.828 50.7027 425.348 57.0068C425.351 57.0279 425.351 57.0519 425.351 57.073C425.351 57.4966 425.014 57.8362 424.6 57.8362H421.248C420.893 57.8362 420.594 57.5808 420.52 57.2412V57.2352C419.709 53.5753 417.739 52.4064 412.395 52.4064C406.41 52.4064 405.715 54.5248 405.715 56.1084C405.715 58.0315 406.537 58.5904 414.617 59.6752C422.612 60.7509 426.411 62.2683 426.411 67.9746C426.399 73.7409 421.674 77.0402 413.428 77.0402L413.419 77.0462Z" fill="white"></path> <rect x="1030.15" y="0.000488281" width="124" height="123.998" fill="#000003"></rect> <path d="M1108.72 77.7326C1109.16 74.0705 1109.03 73.5335 1111.75 74.1267L1112.45 74.1875C1114.54 74.2829 1117.28 73.8502 1118.89 73.1013C1122.35 71.4913 1124.41 68.8031 1120.99 69.5095C1113.2 71.1195 1112.66 68.4768 1112.66 68.4768C1120.89 56.2491 1124.33 40.7271 1121.36 36.9277C1113.26 26.5641 1099.24 31.4648 1099.01 31.592L1098.93 31.6059C1097.39 31.2859 1095.67 31.0947 1093.74 31.0634C1090.21 31.0054 1087.53 31.9893 1085.5 33.5312C1085.5 33.5312 1060.49 23.2128 1061.66 46.5076C1061.9 51.4631 1068.75 84.0048 1076.91 74.1757C1079.9 70.5815 1082.78 67.5426 1082.78 67.5426C1084.21 68.4953 1085.93 68.9813 1087.73 68.8067L1087.87 68.688C1087.82 69.1343 1087.84 69.5708 1087.92 70.0875C1085.82 72.4409 1086.44 72.8541 1082.23 73.7209C1077.98 74.599 1080.48 76.1623 1082.11 76.5709C1084.09 77.0663 1088.66 77.7682 1091.76 73.4327L1091.63 73.9274C1092.46 74.5884 1092.4 78.6785 1092.52 81.6008C1092.64 84.5233 1092.83 87.2503 1093.43 88.8582C1094.02 90.4657 1094.72 94.6072 1100.25 93.4211C1104.87 92.4299 1108.4 91.0033 1108.72 77.7325" fill="white"></path> <path d="M1108.72 77.7326C1109.16 74.0705 1109.03 73.5335 1111.75 74.1267L1112.45 74.1875C1114.54 74.2829 1117.28 73.8502 1118.89 73.1013C1122.35 71.4913 1124.41 68.8031 1120.99 69.5095C1113.2 71.1195 1112.66 68.4768 1112.66 68.4768C1120.89 56.2491 1124.33 40.7271 1121.36 36.9277C1113.26 26.5641 1099.24 31.4648 1099.01 31.592L1098.93 31.6059C1097.39 31.2859 1095.67 31.0947 1093.74 31.0634C1090.21 31.0054 1087.53 31.9893 1085.5 33.5312C1085.5 33.5312 1060.49 23.2128 1061.66 46.5076C1061.9 51.4631 1068.75 84.0048 1076.91 74.1757C1079.9 70.5815 1082.78 67.5426 1082.78 67.5426C1084.21 68.4953 1085.93 68.9813 1087.73 68.8067L1087.87 68.688C1087.82 69.1343 1087.84 69.5708 1087.92 70.0875C1085.82 72.4409 1086.44 72.8541 1082.23 73.7209C1077.98 74.599 1080.48 76.1623 1082.11 76.5709C1084.09 77.0663 1088.66 77.7682 1091.76 73.4327L1091.63 73.9274C1092.46 74.5884 1092.4 78.6785 1092.52 81.6008C1092.64 84.5233 1092.83 87.2503 1093.43 88.8582C1094.02 90.4657 1094.72 94.6072 1100.25 93.4211C1104.87 92.4299 1108.4 91.0033 1108.72 77.7325" stroke="white" stroke-width="5.20381"></path> <path d="M1120.99 69.5094C1113.2 71.1194 1112.66 68.4768 1112.66 68.4768C1120.89 56.2482 1124.33 40.7259 1121.36 36.927C1113.27 26.564 1099.24 31.465 1099.01 31.5923L1098.94 31.6058C1097.4 31.2857 1095.67 31.095 1093.74 31.0633C1090.21 31.0054 1087.53 31.9892 1085.5 33.5308C1085.5 33.5308 1060.49 23.2129 1061.66 46.5075C1061.9 51.4633 1068.75 84.0051 1076.91 74.1759C1079.9 70.5818 1082.78 67.5428 1082.78 67.5428C1084.21 68.4955 1085.93 68.9815 1087.73 68.8069L1087.87 68.6882C1087.82 69.1345 1087.84 69.571 1087.92 70.0877C1085.82 72.4411 1086.44 72.8544 1082.23 73.7211C1077.98 74.5992 1080.48 76.1626 1082.11 76.5711C1084.09 77.0666 1088.66 77.7684 1091.76 73.433L1091.63 73.9277C1092.46 74.5887 1093.04 78.2275 1092.94 81.5261C1092.84 84.8248 1092.78 87.0895 1093.43 88.8584C1094.08 90.6274 1094.72 94.6074 1100.25 93.4213C1104.87 92.4301 1107.26 89.8615 1107.6 85.5768C1107.83 82.5307 1108.37 82.981 1108.4 80.2576L1108.83 78.9683C1109.32 74.8391 1108.91 73.507 1111.75 74.1266L1112.45 74.1874C1114.54 74.2828 1117.28 73.8501 1118.89 73.1012C1122.35 71.4912 1124.41 68.8031 1120.99 69.5094H1120.99Z" fill="white"></path> <path d="M1092.09 71.8778C1091.87 79.5611 1092.14 87.298 1092.89 89.1783C1093.64 91.0587 1095.25 94.716 1100.78 93.53C1105.4 92.5385 1107.08 90.6197 1107.81 86.3844C1108.35 83.2683 1109.38 74.6142 1109.51 72.8411" stroke="black" stroke-width="1.7346" stroke-linecap="round" stroke-linejoin="round"></path> <path d="M1085.46 33.3614C1085.46 33.3614 1060.44 23.1178 1061.6 46.4125C1061.85 51.3683 1068.69 83.9111 1076.86 74.0815C1079.84 70.4869 1082.54 67.6676 1082.54 67.6676" stroke="black" stroke-width="1.7346" stroke-linecap="round" stroke-linejoin="round"></path> <path d="M1098.99 31.4928C1098.12 31.7648 1112.91 26.0792 1121.31 36.8333C1124.28 40.6324 1120.84 56.1547 1112.61 68.3835" stroke="black" stroke-width="1.7346" stroke-linecap="round" stroke-linejoin="round"></path> <path d="M1112.61 68.3878C1112.61 68.3878 1113.14 71.0313 1120.94 69.4202C1124.35 68.7139 1122.3 71.4023 1118.83 73.0131C1115.99 74.3342 1109.62 74.6728 1109.52 72.8472C1109.25 68.1371 1112.87 69.5681 1112.61 68.3878C1112.37 67.3249 1110.75 66.2817 1109.68 63.6803C1108.74 61.4098 1096.85 43.9974 1112.98 46.5834C1113.57 46.461 1108.77 31.2214 1093.68 30.9736C1078.59 30.7258 1079.08 49.5569 1079.08 49.5569" stroke="black" stroke-width="1.7346" stroke-linecap="round" stroke-linejoin="bevel"></path> <path d="M1087.87 69.9971C1085.76 72.3504 1086.38 72.7636 1082.18 73.6306C1077.92 74.5089 1080.42 76.0719 1082.05 76.4803C1084.03 76.9761 1088.61 77.6779 1091.7 73.3414C1092.64 72.0211 1091.69 69.9144 1090.4 69.3773C1089.78 69.118 1088.94 68.7931 1087.87 69.9971V69.9971Z" stroke="black" stroke-width="1.7346" stroke-linecap="round" stroke-linejoin="round"></path> <path d="M1087.73 69.9507C1087.52 68.5671 1088.18 66.9206 1088.89 64.9943C1089.97 62.1041 1092.44 59.2135 1090.46 50.0455C1088.99 43.2136 1079.09 48.6237 1079.08 49.5501C1079.08 50.4761 1079.53 54.2455 1078.92 58.6349C1078.12 64.3626 1082.56 69.2068 1087.67 68.7112" stroke="black" stroke-width="1.7346" stroke-linecap="round" stroke-linejoin="round"></path> <path d="M1085.37 49.4158C1085.33 49.7322 1085.95 50.5765 1086.76 50.6893C1087.58 50.8025 1088.27 50.1428 1088.31 49.8267C1088.36 49.5103 1087.74 49.1618 1086.92 49.0485C1086.11 48.9351 1085.42 49.1002 1085.37 49.4158H1085.37Z" fill="black" stroke="black" stroke-width="0.578196"></path> <path d="M1110.08 48.7668C1110.12 49.0832 1109.5 49.9275 1108.68 50.0403C1107.87 50.1535 1107.18 49.4938 1107.13 49.1777C1107.09 48.8613 1107.71 48.5128 1108.53 48.3995C1109.34 48.2862 1110.03 48.4512 1110.08 48.767V48.7668Z" fill="black" stroke="black" stroke-width="0.289098"></path> <path d="M1112.98 46.5792C1113.11 49.061 1112.44 50.7514 1112.36 53.3933C1112.23 57.2334 1114.19 61.6287 1111.24 66.0294" stroke="black" stroke-width="1.7346" stroke-linecap="round" stroke-linejoin="round"></path> <rect x="1373.54" y="0.000488281" width="124" height="123.998" fill="#000003"></rect> <path d="M1442.75 59.9132H1449.67C1449.83 59.9132 1449.99 59.8499 1450.1 59.7372C1450.21 59.6244 1450.28 59.4713 1450.28 59.3115V53.1736C1450.28 53.0132 1450.21 52.8593 1450.1 52.7458C1449.99 52.6324 1449.83 52.5686 1449.67 52.5686H1442.75C1442.59 52.5686 1442.43 52.632 1442.32 52.7449C1442.21 52.8577 1442.14 53.0108 1442.14 53.1704V59.3115C1442.14 59.6432 1442.41 59.9132 1442.75 59.9132V59.9132ZM1433.09 42.2511H1440.01C1440.18 42.2511 1440.33 42.1874 1440.44 42.0739C1440.56 41.9605 1440.62 41.8066 1440.62 41.6461V35.5051C1440.62 35.3452 1440.56 35.1921 1440.44 35.0794C1440.33 34.9666 1440.18 34.9033 1440.01 34.9033H1433.09C1432.93 34.9033 1432.78 34.9667 1432.67 35.0796C1432.55 35.1924 1432.49 35.3455 1432.49 35.5051V41.6461C1432.49 41.9779 1432.76 42.2479 1433.09 42.2479V42.2511ZM1433.09 51.0822H1440.01C1440.18 51.0813 1440.33 51.0173 1440.44 50.904C1440.56 50.7907 1440.62 50.6374 1440.62 50.4772V44.3394C1440.62 44.1795 1440.56 44.0264 1440.44 43.9137C1440.33 43.8009 1440.18 43.7376 1440.01 43.7376H1433.09C1432.93 43.7376 1432.78 43.801 1432.67 43.9139C1432.55 44.0267 1432.49 44.1798 1432.49 44.3394V50.4772C1432.49 50.8089 1432.76 51.0789 1433.09 51.0822ZM1423.52 51.0822H1430.45C1430.61 51.0805 1430.76 51.016 1430.87 50.9027C1430.98 50.7894 1431.05 50.6365 1431.05 50.4772V44.3394C1431.05 44.1798 1430.98 44.0267 1430.87 43.9139C1430.76 43.801 1430.6 43.7376 1430.44 43.7376H1423.52C1423.36 43.7376 1423.21 43.801 1423.09 43.9139C1422.98 44.0267 1422.92 44.1798 1422.92 44.3394V50.4772C1422.92 50.8089 1423.19 51.0789 1423.52 51.0822H1423.52ZM1413.84 51.0822H1420.76C1420.92 51.0813 1421.08 51.0172 1421.19 50.9038C1421.3 50.7905 1421.37 50.6371 1421.37 50.4772V44.3394C1421.37 44.1798 1421.3 44.0267 1421.19 43.9139C1421.07 43.801 1420.92 43.7376 1420.76 43.7376H1413.84C1413.68 43.7376 1413.52 43.8009 1413.41 43.9137C1413.29 44.0264 1413.23 44.1795 1413.23 44.3394V50.4772C1413.23 50.8089 1413.5 51.0789 1413.84 51.0822V51.0822ZM1433.09 59.9132H1440.01C1440.18 59.9132 1440.33 59.8499 1440.44 59.7372C1440.56 59.6244 1440.62 59.4713 1440.62 59.3115V53.1736C1440.62 53.0132 1440.56 52.8593 1440.44 52.7458C1440.33 52.6324 1440.18 52.5686 1440.01 52.5686H1433.09C1432.93 52.5686 1432.78 52.632 1432.67 52.7449C1432.55 52.8577 1432.49 53.0108 1432.49 53.1704V59.3115C1432.49 59.6432 1432.76 59.9132 1433.09 59.9132V59.9132ZM1423.52 59.9132H1430.45C1430.61 59.9123 1430.76 59.8486 1430.87 59.7358C1430.98 59.6231 1431.05 59.4705 1431.05 59.3115V53.1736C1431.05 53.0946 1431.03 53.0163 1431 52.9431C1430.97 52.8699 1430.93 52.8034 1430.87 52.7472C1430.82 52.691 1430.75 52.6463 1430.68 52.6157C1430.6 52.5851 1430.53 52.5691 1430.45 52.5686H1423.52C1423.36 52.5695 1423.21 52.6333 1423.09 52.746C1422.98 52.8588 1422.92 53.0114 1422.92 53.1704V59.3115C1422.92 59.6432 1423.19 59.9132 1423.52 59.9132H1423.52ZM1413.84 59.9132H1420.76C1420.92 59.9132 1421.07 59.8498 1421.19 59.737C1421.3 59.6241 1421.37 59.4711 1421.37 59.3115V53.1736C1421.37 53.0946 1421.35 53.0163 1421.32 52.9431C1421.29 52.8699 1421.25 52.8034 1421.19 52.7472C1421.13 52.691 1421.07 52.6463 1421 52.6157C1420.92 52.5851 1420.84 52.5691 1420.76 52.5686H1413.84C1413.68 52.5686 1413.52 52.6324 1413.41 52.7458C1413.29 52.8593 1413.23 53.0132 1413.23 53.1736V59.3115C1413.23 59.6432 1413.5 59.9132 1413.84 59.9132V59.9132ZM1404.29 59.9132H1411.22C1411.38 59.9123 1411.53 59.8486 1411.65 59.7358C1411.76 59.6231 1411.82 59.4705 1411.82 59.3115V53.1736C1411.82 53.0946 1411.81 53.0163 1411.78 52.9431C1411.75 52.8699 1411.7 52.8034 1411.65 52.7472C1411.59 52.691 1411.53 52.6463 1411.45 52.6157C1411.38 52.5851 1411.3 52.5691 1411.22 52.5686H1404.29C1404.13 52.5695 1403.98 52.6333 1403.87 52.746C1403.76 52.8588 1403.69 53.0114 1403.69 53.1704V59.3115C1403.69 59.6432 1403.96 59.9132 1404.3 59.9132H1404.29ZM1474.71 56.049C1474.49 55.8831 1472.51 54.3901 1468.32 54.3901C1467.22 54.3934 1466.11 54.4877 1465.02 54.6731C1464.21 49.1436 1459.62 46.4438 1459.41 46.3267L1458.29 45.6795L1457.55 46.7431C1456.62 48.1678 1455.95 49.7421 1455.55 51.3944C1454.8 54.5495 1455.26 57.516 1456.87 60.0498C1454.92 61.1297 1451.8 61.3932 1451.17 61.4159H1399.51C1398.86 61.4168 1398.24 61.6732 1397.78 62.1291C1397.32 62.585 1397.06 63.2033 1397.06 63.849C1397 68.3534 1397.76 72.831 1399.32 77.0614C1401.1 81.7062 1403.75 85.128 1407.19 87.2227C1411.05 89.5744 1417.32 90.921 1424.43 90.921C1427.64 90.9308 1430.85 90.6413 1434.01 90.0558C1438.39 89.2534 1442.62 87.7264 1446.5 85.5378C1449.7 83.6936 1452.58 81.3484 1455.03 78.5901C1459.12 73.9778 1461.56 68.8418 1463.37 64.2783H1464.09C1468.57 64.2783 1471.33 62.4926 1472.85 60.9963C1473.86 60.0433 1474.65 58.8821 1475.16 57.594L1475.48 56.6573L1474.71 56.049Z" fill="white"></path> <rect y="0.000732422" width="124" height="123.998" fill="#000003"></rect> <g clip-path="url(#clip1_986:2006)"> <path d="M94.0778 29.0094H29.917V93.1693H94.0778V29.0094Z" fill="white"></path> <path d="M73.0157 79.1318C74.3081 81.2419 75.9895 82.793 78.9633 82.793C81.4615 82.793 83.0574 81.5444 83.0574 79.8192C83.0574 77.7518 81.4177 77.0196 78.6679 75.8168L77.1607 75.1702C72.81 73.3166 69.9197 70.9947 69.9197 66.0859C69.9197 61.5642 73.365 58.1219 78.7494 58.1219C82.5828 58.1219 85.3386 59.4561 87.3246 62.9492L82.6296 65.9637C81.5959 64.1102 80.4807 63.38 78.7494 63.38C76.9835 63.38 75.8642 64.5003 75.8642 65.9637C75.8642 67.7724 76.9845 68.5047 79.5713 69.6249L81.0786 70.2706C86.2012 72.4673 89.0936 74.7068 89.0936 79.7418C89.0936 85.1699 84.8294 88.1437 79.1028 88.1437C73.5035 88.1437 69.8861 85.4755 68.116 81.9782L73.0157 79.1318ZM51.7174 79.6542C52.6645 81.3346 53.5261 82.7553 55.5976 82.7553C57.5784 82.7553 58.828 81.9803 58.828 78.9668V58.4662H64.8571V79.0483C64.8571 85.2911 61.1969 88.1325 55.8542 88.1325C51.0269 88.1325 48.2313 85.6343 46.8096 82.6254L51.7174 79.6542Z" fill="black"></path> </g> <rect x="171.692" y="0.000976562" width="124" height="123.998" fill="#000003"></rect> <path d="M268.533 61.9479C268.533 57.3448 262.769 52.9824 253.93 50.2772C255.97 41.2692 255.064 34.1024 251.069 31.8079C250.149 31.2697 249.072 31.0148 247.897 31.0148V34.1732C248.548 34.1732 249.072 34.3007 249.511 34.5415C251.438 35.6463 252.273 39.8528 251.622 45.2633C251.466 46.5947 251.211 47.9969 250.899 49.4274C248.123 48.7475 245.092 48.2235 241.905 47.8835C239.993 45.2633 238.01 42.8838 236.013 40.8018C240.631 36.5102 244.965 34.1591 247.911 34.1591V31.0006C244.016 31.0006 238.917 33.7767 233.761 38.5923C228.606 33.805 223.507 31.0573 219.612 31.0573V34.2157C222.544 34.2157 226.892 36.5527 231.509 40.8159C229.526 42.898 227.543 45.2633 225.66 47.8835C222.459 48.2235 219.428 48.7475 216.651 49.4415C216.326 48.0252 216.085 46.6513 215.915 45.3341C215.249 39.9236 216.071 35.7171 217.983 34.5981C218.408 34.3432 218.96 34.2299 219.612 34.2299V31.0714C218.422 31.0714 217.345 31.3264 216.411 31.8646C212.431 34.1591 211.538 41.3117 213.592 50.2913C204.782 53.0107 199.046 57.359 199.046 61.9479C199.046 66.5511 204.811 70.9135 213.649 73.6187C211.609 82.6267 212.516 89.7935 216.51 92.0879C217.43 92.6262 218.507 92.8811 219.697 92.8811C223.592 92.8811 228.691 90.105 233.846 85.2894C239.002 90.0767 244.101 92.8245 247.996 92.8245C249.186 92.8245 250.262 92.5695 251.197 92.0313C255.177 89.7368 256.069 82.5842 254.015 73.6045C262.797 70.8993 268.533 66.5369 268.533 61.9479ZM250.092 52.5009C249.568 54.328 248.916 56.2117 248.18 58.0955C247.599 56.9624 246.99 55.8293 246.324 54.6962C245.673 53.5631 244.979 52.4584 244.285 51.3819C246.296 51.6794 248.237 52.0476 250.092 52.5009ZM243.605 67.585C242.5 69.4971 241.367 71.31 240.192 72.9955C238.081 73.1796 235.942 73.2788 233.79 73.2788C231.651 73.2788 229.512 73.1796 227.416 73.0097C226.24 71.3242 225.093 69.5254 223.988 67.6275C222.912 65.7721 221.935 63.8883 221.042 61.9904C221.92 60.0925 222.912 58.1946 223.974 56.3392C225.079 54.4271 226.212 52.6142 227.388 50.9287C229.498 50.7446 231.637 50.6454 233.79 50.6454C235.928 50.6454 238.067 50.7446 240.163 50.9145C241.339 52.6 242.486 54.3988 243.591 56.2967C244.667 58.1521 245.645 60.0359 246.537 61.9338C245.645 63.8317 244.667 65.7296 243.605 67.585ZM248.18 65.7438C248.945 67.6417 249.596 69.5396 250.135 71.3809C248.279 71.8341 246.324 72.2165 244.299 72.5139C244.993 71.4233 245.687 70.3044 246.339 69.1572C246.99 68.0241 247.599 66.8768 248.18 65.7438ZM233.818 80.8563C232.501 79.4966 231.183 77.9811 229.88 76.3239C231.155 76.3806 232.458 76.4231 233.775 76.4231C235.107 76.4231 236.424 76.3947 237.713 76.3239C236.438 77.9811 235.121 79.4966 233.818 80.8563ZM223.28 72.5139C221.269 72.2165 219.328 71.8483 217.473 71.395C217.997 69.5679 218.649 67.6842 219.385 65.8004C219.966 66.9335 220.575 68.0666 221.24 69.1997C221.906 70.3328 222.586 71.4375 223.28 72.5139ZM233.747 43.0396C235.064 44.3993 236.382 45.9148 237.685 47.5719C236.41 47.5153 235.107 47.4728 233.79 47.4728C232.458 47.4728 231.141 47.5011 229.852 47.5719C231.127 45.9148 232.444 44.3993 233.747 43.0396ZM223.266 51.3819C222.572 52.4725 221.878 53.5915 221.226 54.7387C220.575 55.8718 219.966 57.0049 219.385 58.1379C218.62 56.24 217.969 54.3421 217.43 52.5009C219.286 52.0618 221.24 51.6794 223.266 51.3819ZM210.448 69.1147C205.434 66.976 202.19 64.1716 202.19 61.9479C202.19 59.7243 205.434 56.9057 210.448 54.7812C211.666 54.2571 212.997 53.7897 214.371 53.3507C215.178 56.1267 216.241 59.0161 217.558 61.9763C216.255 64.9223 215.207 67.7975 214.414 70.5594C213.011 70.1203 211.68 69.6387 210.448 69.1147ZM218.068 89.3544C216.142 88.2496 215.306 84.0431 215.957 78.6326C216.113 77.3012 216.368 75.899 216.68 74.4685C219.456 75.1484 222.487 75.6724 225.674 76.0123C227.586 78.6326 229.569 81.0121 231.566 83.0941C226.948 87.3857 222.614 89.7368 219.668 89.7368C219.031 89.7226 218.493 89.5952 218.068 89.3544ZM251.664 78.5618C252.33 83.9722 251.508 88.1788 249.596 89.2977C249.171 89.5527 248.619 89.666 247.967 89.666C245.036 89.666 240.687 87.329 236.07 83.0658C238.053 80.9837 240.036 78.6184 241.92 75.9982C245.121 75.6582 248.152 75.1342 250.928 74.4402C251.253 75.8707 251.508 77.2446 251.664 78.5618ZM257.117 69.1147C255.899 69.6387 254.568 70.1061 253.194 70.5452C252.387 67.7692 251.324 64.8798 250.007 61.9196C251.31 58.9736 252.358 56.0984 253.151 53.3365C254.554 53.7756 255.885 54.2571 257.131 54.7812C262.145 56.9199 265.389 59.7243 265.389 61.9479C265.375 64.1716 262.131 66.9902 257.117 69.1147Z" fill="white"></path> <path d="M233.774 68.4186C237.348 68.4186 240.246 65.5207 240.246 61.9459C240.246 58.3711 237.348 55.4731 233.774 55.4731C230.199 55.4731 227.301 58.3711 227.301 61.9459C227.301 65.5207 230.199 68.4186 233.774 68.4186Z" fill="white"></path> <rect x="515.077" y="0.000488281" width="124" height="123.998" fill="#000003"></rect> <path d="M587.755 29.8424L578 46.5269L568.245 29.8424H535.759L578 102.089L620.241 29.8424H587.755Z" fill="white"></path> <path d="M567.965 30.3306H553.505L578 72.224L602.494 30.3306H588.035L578.421 46.7736L578 47.4937L577.579 46.7736L567.965 30.3306Z" fill="black" stroke="white" stroke-width="0.975444"></path> <defs> <clipPath id="clip0_986:2006"> <rect width="67.5854" height="67.5844" fill="white" transform="translate(714.527 27.7567)"></rect> </clipPath> <clipPath id="clip1_986:2006"> <rect width="64.1608" height="64.1599" fill="white" transform="translate(29.9175 29.0092)"></rect> </clipPath> </defs> </svg> 