<?xml version="1.0" encoding="UTF-8"?> <svg xmlns="http://www.w3.org/2000/svg" width="137" height="136" viewBox="0 0 137 136" fill="none"> <rect x="0.602539" width="136" height="136" fill="#000003"></rect> <rect x="33.4272" y="32.824" width="70.3503" height="70.3503" fill="white"></rect> <path d="M44.5889 65.7565V65.857H44.6895H46.2683H46.3688V65.7565V59.4824H53.2634V65.7565V65.857H53.3639H54.9428H55.0433V65.7565V52.0575V51.9569H54.9428H53.3639H53.2634V52.0575V57.9845H46.3688V52.0575V51.9569H46.2683H44.6895H44.5889V52.0575V65.7565ZM61.515 65.7565V65.857H61.6155H63.1762H63.2768V65.7565V53.4549H67.7131H67.8136V53.3543V52.0575V51.9569H67.7131H57.0605H56.9599V52.0575V53.3543V53.4549H57.0605H61.515V65.7565ZM75.5923 62.3157L75.6208 62.3683H75.6807H76.7514H76.8113L76.8398 62.3156L81.0606 54.501V65.7565V65.857H81.1612H82.7219H82.8224V65.7565V52.0575V51.9569H82.7219H80.8345H80.7748L80.7462 52.0094L76.3331 60.1228L71.8306 52.0087L71.8019 51.9569H71.7427H69.8372H69.7366V52.0575V65.7565V65.857H69.8372H71.2708H71.3714V65.7565V54.5359L75.5923 62.3157ZM86.2182 65.7565V65.857H86.3188H93.9226H94.0231V65.7565V64.4596V64.3591H93.9226H87.9982V52.0575V51.9569H87.8976H86.3188H86.2182V52.0575V65.7565ZM62.8622 84.2231L62.8729 84.2018V84.1779V83.155V83.0545H62.7724H61.6291H61.5608L61.5357 83.1179L61.5356 83.1179L61.5356 83.118L61.5356 83.118L61.5353 83.1187L61.5338 83.1224L61.5268 83.1385C61.5204 83.153 61.5104 83.1748 61.4964 83.2029C61.4685 83.259 61.4249 83.3402 61.3629 83.438C61.239 83.6338 61.0423 83.8958 60.7519 84.1581C60.1728 84.6811 59.2165 85.2098 57.7092 85.2098C56.1686 85.2098 54.9219 84.5923 54.0588 83.5784C53.1944 82.5631 52.7104 81.1445 52.7104 79.5385C52.7104 77.9682 53.1677 76.5727 54.018 75.5715C54.8668 74.5722 56.1131 73.9585 57.7092 73.9585C59.2359 73.9585 60.1689 74.4698 60.7197 74.9733C60.996 75.2259 61.1777 75.4782 61.2901 75.6664C61.3463 75.7605 61.3851 75.8385 61.4096 75.8924C61.4218 75.9193 61.4305 75.9402 61.436 75.9541L61.442 75.9694L61.4432 75.9728L61.4434 75.9733L61.4435 75.9734L61.4435 75.9735L61.4435 75.9735L61.4669 76.0408H61.5384H62.6817H62.7822V75.9402V74.9174V74.8953L62.7729 74.8752L62.6817 74.9174C62.7729 74.8752 62.7729 74.8751 62.7729 74.8751L62.7728 74.8748L62.7725 74.8743L62.7717 74.8725L62.7687 74.8665C62.7662 74.8613 62.7626 74.854 62.7578 74.8447C62.7481 74.8261 62.7337 74.7993 62.7142 74.7656C62.675 74.6983 62.6152 74.6031 62.5311 74.4894C62.363 74.2621 62.0981 73.9606 61.7087 73.6597C60.9286 73.0568 59.6547 72.4606 57.673 72.4606C55.6143 72.4606 53.9309 73.2198 52.7627 74.4885C51.5953 75.7563 50.9486 77.5262 50.9486 79.5385C50.9486 81.53 51.5303 83.3269 52.6656 84.6276C53.8025 85.93 55.4871 86.726 57.673 86.726C59.6287 86.726 60.9251 86.1062 61.7337 85.4812C62.1374 85.1692 62.4184 84.8568 62.599 84.6215C62.6892 84.5039 62.7545 84.4054 62.7974 84.3358C62.8189 84.301 62.8348 84.2735 62.8454 84.2543C62.8508 84.2447 62.8548 84.2372 62.8576 84.232L62.8608 84.2258L62.8617 84.224L62.862 84.2235L62.8621 84.2233C62.8621 84.2232 62.8622 84.2231 62.7724 84.1779L62.8622 84.2231ZM68.7611 78.4745L68.7598 78.4741C67.9646 78.2376 67.3377 77.9685 66.9099 77.5951C66.4878 77.2266 66.2548 76.7522 66.2548 76.0864C66.2548 75.5191 66.471 74.9898 66.9 74.6015C67.3292 74.2129 67.9793 73.9585 68.8582 73.9585C69.782 73.9585 70.4102 74.2173 70.8354 74.5932C71.262 74.9702 71.4944 75.474 71.6093 75.9807L71.627 76.0591H71.7073H72.8325H72.933V75.9585V74.9356V74.9221L72.9294 74.909C72.7327 74.1924 72.3101 73.5778 71.6467 73.1437C70.9844 72.7103 70.0883 72.4606 68.9489 72.4606C67.5964 72.4606 66.496 72.845 65.7321 73.5081C64.9671 74.1721 64.5474 75.1091 64.5474 76.196C64.5474 77.1753 64.8216 77.9865 65.4246 78.643C66.025 79.2968 66.9431 79.7878 68.2136 80.1466C68.2137 80.1466 68.2138 80.1467 68.2138 80.1467L69.0297 80.3839L69.0305 80.3841C70.0592 80.6748 70.7201 81.0069 71.1239 81.4068C71.5227 81.8017 71.6794 82.2715 71.6794 82.8628C71.6794 83.6198 71.3875 84.2074 70.9058 84.6074C70.4221 85.0092 69.7388 85.228 68.9489 85.228C68.0677 85.228 67.3673 85.0088 66.8311 84.6343C66.2948 84.2597 65.9162 83.7254 65.6863 83.0845L65.6624 83.0179H65.5916H64.4483H64.3478V83.1185V84.1413V84.1619L64.3558 84.1807C64.9178 85.5004 66.427 86.726 68.9126 86.726C70.2191 86.726 71.3416 86.3602 72.1394 85.691C72.939 85.0204 73.4049 84.0511 73.4049 82.8628C73.4049 81.7819 73.0893 80.9344 72.4752 80.2716C71.8639 79.6116 70.9647 79.1435 69.8129 78.803C69.8127 78.8029 69.8124 78.8028 69.8122 78.8028L68.7611 78.4745ZM79.4653 78.4745L79.464 78.4741C78.6688 78.2376 78.0418 77.9685 77.6141 77.5951C77.192 77.2266 76.9589 76.7522 76.9589 76.0864C76.9589 75.5191 77.1752 74.9898 77.6041 74.6015C78.0333 74.2129 78.6835 73.9585 79.5624 73.9585C80.4862 73.9585 81.1144 74.2173 81.5396 74.5932C81.9662 74.9702 82.1986 75.474 82.3134 75.9807L82.3312 76.0591H82.4115H83.5367H83.6372V75.9585V74.9356V74.9221L83.6336 74.909C83.4369 74.1924 83.0143 73.5778 82.3509 73.1437C81.6886 72.7103 80.7925 72.4606 79.6531 72.4606C78.3006 72.4606 77.2002 72.845 76.4363 73.5081C75.6713 74.1721 75.2516 75.1091 75.2516 76.196C75.2516 77.1753 75.5258 77.9865 76.1287 78.643C76.7292 79.2968 77.6473 79.7878 78.9178 80.1466C78.9179 80.1466 78.9179 80.1467 78.918 80.1467L79.7339 80.3839L79.7346 80.3841C80.7634 80.6748 81.4243 81.0069 81.8281 81.4068C82.2269 81.8017 82.3835 82.2715 82.3835 82.8628C82.3835 83.6198 82.0917 84.2074 81.61 84.6074C81.1262 85.0092 80.443 85.228 79.6531 85.228C78.7719 85.228 78.0715 85.0088 77.5352 84.6343C76.999 84.2597 76.6204 83.7254 76.3905 83.0845L76.3666 83.0179H76.2958H75.1525H75.052V83.1185V84.1413V84.1619L75.06 84.1807C75.6219 85.5004 77.1312 86.726 79.6168 86.726C80.9233 86.726 82.0458 86.3602 82.8436 85.691C83.6432 85.0204 84.109 84.0511 84.109 82.8628C84.109 81.7819 83.7934 80.9344 83.1794 80.2716C82.5681 79.6116 81.6689 79.1435 80.5171 78.803C80.5169 78.8029 80.5166 78.8029 80.5164 78.8028L79.4653 78.4745Z" fill="black" stroke="black" stroke-width="0.201102"></path> </svg> 