<?xml version="1.0" encoding="UTF-8"?> <svg xmlns="http://www.w3.org/2000/svg" width="420" height="274" viewBox="0 0 420 274" fill="none"> <path fill-rule="evenodd" clip-rule="evenodd" d="M419.392 0H0V273.517H419.392V0ZM65.7295 86.9528H63.8177V186.346H65.9685C71.6227 186.346 78.3912 186.425 84.1153 186.491L84.1174 186.491H84.1187C88.3122 186.54 91.9449 186.583 94.1679 186.583C132.643 186.583 151.762 163.627 151.762 135.703C151.762 109.435 135.511 86.4795 95.3627 86.4795C91.9715 86.4795 85.4116 86.6102 79.1873 86.7343L79.1867 86.7343C73.5684 86.8463 68.2237 86.9528 65.7295 86.9528ZM86.7595 165.047V108.251C89.6273 107.778 92.734 107.778 95.3627 107.778C114.003 107.778 127.625 117.481 127.625 135.703C127.625 154.635 114.959 165.284 95.1238 165.284H95.1231C91.7778 165.284 89.8661 165.284 86.7595 165.047ZM210.309 85.2634C240.898 85.2634 263.601 104.905 263.601 136.617C263.601 166.671 240.898 187.97 210.309 187.97C179.72 187.97 157.017 168.328 157.017 136.617C157.017 107.745 178.525 85.2634 210.309 85.2634ZM210.309 166.671C229.427 166.671 239.225 153.419 239.225 136.617C239.464 118.394 226.559 106.562 210.309 106.562C193.581 106.562 181.393 118.394 181.393 136.617C181.393 153.655 194.297 166.671 210.309 166.671ZM313.072 188.208C334.58 188.208 354.177 175.665 354.177 145.374V86.9214H331.235V140.641C331.235 156.497 326.933 166.672 313.072 166.672C297.061 166.672 292.281 154.84 292.281 139.458V86.9214H269.339V144.427C269.339 173.535 287.263 188.208 313.072 188.208Z" fill="black"></path> </svg> 