<?xml version="1.0" encoding="UTF-8"?> <svg xmlns="http://www.w3.org/2000/svg" width="137" height="136" viewBox="0 0 137 136" fill="none"> <rect x="0.808594" width="136" height="136" fill="#000003"></rect> <path d="M76.7152 65.7119H84.3097C84.4859 65.7119 84.6549 65.6425 84.7798 65.5188C84.9047 65.3951 84.9754 65.2272 84.9763 65.0519V58.32C84.9763 58.144 84.9061 57.9752 84.7811 57.8508C84.6561 57.7263 84.4865 57.6564 84.3097 57.6564H76.7152C76.5393 57.6564 76.3707 57.726 76.2464 57.8497C76.122 57.9735 76.0522 58.1414 76.0522 58.3164V65.0519C76.0522 65.4158 76.3496 65.7119 76.7152 65.7119V65.7119ZM66.1281 46.3403H73.719C73.8958 46.3403 74.0653 46.2704 74.1904 46.1459C74.3154 46.0215 74.3856 45.8527 74.3856 45.6767V38.9412C74.3847 38.7659 74.314 38.598 74.1891 38.4743C74.0642 38.3507 73.8952 38.2812 73.719 38.2813H66.1281C65.9522 38.2813 65.7836 38.3508 65.6592 38.4746C65.5349 38.5983 65.465 38.7662 65.465 38.9412V45.6767C65.465 46.0406 65.7589 46.3367 66.1281 46.3367V46.3403ZM66.1281 56.0261H73.719C73.8955 56.0251 74.0645 55.9549 74.1893 55.8307C74.3141 55.7064 74.3847 55.5382 74.3856 55.3625V48.6306C74.3847 48.4552 74.314 48.2874 74.1891 48.1637C74.0642 48.04 73.8952 47.9706 73.719 47.9706H66.1281C65.9522 47.9706 65.7836 48.0402 65.6592 48.1639C65.5349 48.2877 65.465 48.4556 65.465 48.6306V55.3625C65.465 55.7264 65.7589 56.0225 66.1281 56.0261ZM55.627 56.0261H63.225C63.4006 56.0242 63.5683 55.9534 63.6918 55.8292C63.8152 55.705 63.8845 55.5373 63.8845 55.3625V48.6306C63.8845 48.4556 63.8146 48.2877 63.6903 48.1639C63.5659 48.0402 63.3973 47.9706 63.2214 47.9706H55.6305C55.4547 47.9706 55.286 48.0402 55.1617 48.1639C55.0374 48.2877 54.9675 48.4556 54.9675 48.6306V55.3625C54.9675 55.7264 55.265 56.0225 55.6305 56.0261H55.627ZM45.0076 56.0261H52.6021C52.7782 56.0251 52.9469 55.9548 53.0711 55.8305C53.1954 55.7061 53.2651 55.5379 53.2651 55.3625V48.6306C53.2651 48.4556 53.1952 48.2877 53.0709 48.1639C52.9466 48.0402 52.7779 47.9706 52.6021 47.9706H45.0076C44.8314 47.9706 44.6624 48.04 44.5375 48.1637C44.4125 48.2874 44.3419 48.4552 44.3409 48.6306V55.3625C44.3409 55.7264 44.642 56.0225 45.0076 56.0261V56.0261ZM66.1281 65.7119H73.719C73.8952 65.7119 74.0642 65.6425 74.1891 65.5188C74.314 65.3951 74.3847 65.2272 74.3856 65.0519V58.32C74.3856 58.144 74.3154 57.9752 74.1904 57.8508C74.0653 57.7263 73.8958 57.6564 73.719 57.6564H66.1281C65.9522 57.6564 65.7836 57.726 65.6592 57.8497C65.5349 57.9735 65.465 58.1414 65.465 58.3164V65.0519C65.465 65.4158 65.7589 65.7119 66.1281 65.7119V65.7119ZM55.627 65.7119H63.225C63.4003 65.7109 63.568 65.641 63.6916 65.5173C63.8151 65.3936 63.8845 65.2263 63.8845 65.0519V58.32C63.885 58.2333 63.8683 58.1474 63.8354 58.0671C63.8025 57.9869 63.7541 57.9139 63.6928 57.8522C63.6316 57.7906 63.5588 57.7416 63.4785 57.708C63.3982 57.6744 63.3121 57.6569 63.225 57.6564H55.627C55.4517 57.6574 55.284 57.7273 55.1604 57.851C55.0369 57.9747 54.9675 58.142 54.9675 58.3164V65.0519C54.9675 65.4158 55.265 65.7119 55.6305 65.7119H55.627ZM45.0076 65.7119H52.6021C52.7779 65.7119 52.9466 65.6423 53.0709 65.5186C53.1952 65.3948 53.2651 65.2269 53.2651 65.0519V58.32C53.2656 58.2333 53.2489 58.1474 53.216 58.0671C53.1831 57.9869 53.1347 57.9139 53.0734 57.8522C53.0122 57.7906 52.9394 57.7416 52.8591 57.708C52.7788 57.6744 52.6927 57.6569 52.6056 57.6564H45.0076C44.8308 57.6564 44.6612 57.7263 44.5362 57.8508C44.4112 57.9752 44.3409 58.144 44.3409 58.32V65.0519C44.3409 65.4158 44.642 65.7119 45.0076 65.7119V65.7119ZM34.5423 65.7119H42.1404C42.3156 65.7109 42.4833 65.641 42.6069 65.5173C42.7305 65.3936 42.7998 65.2263 42.7998 65.0519V58.32C42.8003 58.2333 42.7836 58.1474 42.7507 58.0671C42.7178 57.9869 42.6694 57.9139 42.6082 57.8522C42.5469 57.7906 42.4741 57.7416 42.3938 57.708C42.3136 57.6744 42.2274 57.6569 42.1404 57.6564H34.5423C34.3671 57.6574 34.1993 57.7273 34.0758 57.851C33.9522 57.9747 33.8828 58.142 33.8828 58.3164V65.0519C33.8828 65.4158 34.1767 65.7119 34.5459 65.7119H34.5423ZM111.767 61.4737C111.534 61.2917 109.358 59.6542 104.764 59.6542C103.552 59.6578 102.341 59.7613 101.144 59.9646C100.255 53.8998 95.2194 50.9388 94.9936 50.8104L93.7607 50.1004L92.9507 51.267C91.9329 52.8296 91.1945 54.5563 90.7573 56.3685C89.933 59.829 90.4347 63.0826 92.2017 65.8617C90.0692 67.0461 86.6465 67.3351 85.9512 67.3601H29.2917C28.5804 67.361 27.8983 67.6422 27.3946 68.1423C26.8909 68.6423 26.6066 69.3205 26.6037 70.0286C26.5374 74.969 27.3779 79.8799 29.0839 84.5198C31.0371 89.6142 33.9402 93.3673 37.7213 95.6647C41.9504 98.244 48.8317 99.721 56.6269 99.721C60.15 99.7317 63.6623 99.4142 67.128 98.772C71.9408 97.892 76.5718 96.2171 80.8296 93.8168C84.3419 91.794 87.4959 89.2218 90.1839 86.1965C94.671 81.1378 97.3447 75.5047 99.3338 70.4995H100.126C105.043 70.4995 108.064 68.5409 109.731 66.8999C110.838 65.8546 111.702 64.581 112.265 63.1682L112.616 62.1408L111.767 61.4737Z" fill="white"></path> </svg> 