<?xml version="1.0" encoding="UTF-8"?> <svg xmlns="http://www.w3.org/2000/svg" width="1377" height="1275" viewBox="0 0 1377 1275" fill="none"> <path d="M1093.89 234.09C1090.35 217.85 1088.03 201.11 1080.81 186C1085.6 171.31 1065.01 180.03 1057.59 179.69C1057.66 178.66 1057.47 177.67 1057.1 176.68C1057.16 176.83 1057.22 176.98 1057.28 177.13C1049.94 156.76 1041.51 119.07 1020.44 109.35C1019.87 108.65 1019.01 108.33 1018.16 108.34C1014.57 103.28 1008.84 109.05 1004.72 110.47C942.969 140.27 881.489 170.64 819.629 200.2C819.389 200.31 819.149 200.43 818.909 200.54C801.059 208.84 783.309 217.34 765.549 225.81C764.279 226.4 763.019 227.01 761.749 227.61C761.709 227.63 761.679 227.64 761.639 227.66C730.559 241.03 701.109 257.91 669.839 270.8C665.609 273.93 644.119 275.38 649.219 282.47C646.539 307.41 655.789 344.32 669.629 365.07C669.609 365.97 670.129 366.92 670.929 367.31C670.919 367.32 670.919 367.32 670.909 367.33C680.879 370.81 691.769 370.85 702.239 371.3C717.849 395.81 735.139 419.24 753.429 441.84C755.609 444.53 757.809 447.21 760.009 449.88C760.519 450.41 761.019 450.94 761.509 451.49C762.139 452.17 762.759 452.86 763.379 453.56C765.649 456.11 767.869 458.76 770.119 461.4C773.229 465.08 776.369 468.75 779.729 472.13C781.699 474.12 783.729 476.01 785.879 477.75C788.419 479.81 791.099 481.65 793.999 483.2C796.369 486.07 799.159 488.58 803.009 489.03C816.039 489.62 826.969 476.37 831.719 465.35C832.829 461.65 832.309 458.09 830.999 454.67C829.909 451.84 828.279 449.11 826.569 446.49C825.149 444.29 823.679 442.17 822.429 440.12C820.609 437.02 818.789 433.92 816.959 430.82C815.589 428.49 814.219 426.16 812.849 423.83C810.269 419.44 807.689 415.06 805.129 410.67C804.769 410.05 804.409 409.43 804.049 408.81C803.429 407.75 802.809 406.69 802.199 405.63C802.019 405.32 801.839 405.02 801.659 404.71C794.719 392.73 787.909 380.67 781.439 368.43C795.799 368.05 810.139 367.33 824.479 366.61C877.409 364.57 930.449 364.17 983.389 365.95C1002.63 366.53 1021.85 367.58 1041.08 368.4C1049.56 366.98 1074.45 374.61 1075.02 362.4C1086.97 334.72 1077.83 303.3 1070.14 275.6C1071.45 274.88 1072.08 273.15 1071.51 271.79C1093.74 270.47 1097.79 253.18 1093.89 234.09ZM719.519 373.01C719.159 372.51 718.809 372.01 718.459 371.52C718.699 371.52 718.939 371.51 719.179 371.51C719.389 371.92 719.599 372.33 719.809 372.74C719.699 372.82 719.609 372.91 719.519 373.01ZM1015.68 116.88C1016.35 116.51 1016.94 116.01 1017.44 115.41C1032.87 127.38 1039.01 162.83 1045.79 181.11C1029.46 183.79 1012.7 183.17 996.739 188.02C994.319 163.7 989.649 129.92 1015.68 116.88ZM959.739 353.36C910.969 353.01 862.139 353.29 813.409 355.69C813.259 355.7 813.119 355.7 812.969 355.71C808.199 355.91 803.419 356.1 798.639 356.26C798.529 355.67 798.329 355.11 798.119 354.55C798.109 354.54 798.109 354.54 798.109 354.53C796.429 350.63 794.719 346.76 793.239 342.78C793.219 342.75 793.209 342.71 793.189 342.67C793.119 342.48 793.039 342.29 792.969 342.1C792.969 342.11 792.969 342.11 792.969 342.12C792.969 342.11 792.969 342.1 792.959 342.09C779.099 309.96 766.079 276.94 756.849 243.26C759.799 241.93 762.739 240.59 765.669 239.21C767.369 238.46 769.049 237.64 770.729 236.83C770.809 236.79 770.889 236.75 770.969 236.72C771.349 236.54 771.719 236.37 772.099 236.19C784.249 230.46 796.329 224.58 808.469 218.83C869.699 190.33 929.589 159.11 990.299 129.57C979.559 155.51 984.499 184.37 987.469 211.38V211.39C987.469 211.45 987.479 211.5 987.489 211.55C987.589 212.56 987.689 213.56 987.799 214.57C990.609 239.48 998.219 263.79 1007.07 287.17C1007.25 287.63 1007.43 288.08 1007.6 288.53C1016.39 312.39 1025.91 336.59 1041.98 356.58C1014.58 355.33 987.169 353.89 959.739 353.36ZM1059.57 354.93C1038.1 338.89 1030.26 310.55 1020.72 286.57C1031.31 283.01 1042.26 280.81 1053.01 277.87C1055.04 277.28 1057.04 276.6 1059.04 275.9C1058.73 278.98 1060.14 281.94 1060.73 284.92C1066.08 307.61 1071.29 333.4 1059.57 354.93ZM1018.2 279.94C1009.12 255.34 1001.51 229.83 998.889 203.66C998.569 201.07 998.199 198.48 997.839 195.9C998.889 196.2 999.989 195.35 1000.42 194.41C1020.04 193.45 1039.64 193.55 1059.17 190.96C1052.79 212.69 1061.8 239.01 1070.75 259.07C1053.29 266.15 1034.9 271.08 1018.2 279.94ZM1083.46 253.9C1078.67 246.18 1075.29 236.88 1073.01 227.94C1072.66 226.48 1072.31 225.02 1071.96 223.56C1071.91 223.34 1071.85 223.12 1071.8 222.9C1069.93 212.55 1063.19 200.16 1069.41 190.31C1076.9 205.69 1086.03 237.24 1083.46 253.9Z" fill="#FFC94B"></path> <path d="M932.94 963.91C932.93 963.93 932.92 963.95 932.92 963.97C932.91 963.98 932.9 963.99 932.89 964C932.91 963.97 932.93 963.94 932.94 963.91Z" fill="#000003"></path> <path d="M484.269 328.13C479.219 328.44 472.269 324.04 478.419 319.64C502.939 316.56 519.379 304.85 485.189 296.24C473.489 292.64 472.779 278.38 471.049 268.22C471.019 268.11 470.999 268.01 470.969 267.9C470.969 267.89 470.969 267.89 470.969 267.89C470.959 267.88 470.959 267.86 470.959 267.85C470.699 264.78 466.879 259.24 471.009 257.68C471.459 245.48 479.979 277.16 481.109 279.21C482.299 283.68 483.669 288.07 489.009 288.45C521.679 296.03 513.959 325.41 484.269 328.13Z" fill="#000003"></path> <path d="M470.969 267.9C470.969 267.89 470.969 267.89 470.969 267.9C470.969 267.88 470.959 267.87 470.959 267.86C470.959 267.87 470.959 267.88 470.969 267.9Z" fill="#000003"></path> <path d="M421.849 280.47C408.559 278.12 393.339 280.47 385.159 292.27C381.379 298.34 376.099 307.06 381.639 313.6C382.219 314.19 382.939 314.5 383.699 314.55C383.699 314.55 383.699 314.55 383.709 314.55C383.719 314.55 383.729 314.55 383.729 314.55C383.989 314.62 384.259 314.67 384.559 314.67C389.089 315.49 393.569 314.68 397.949 313.48C398.949 313.43 402.009 312.9 405.859 312.04H405.889C405.909 312.04 405.939 312.03 405.959 312.03C409.299 311.45 412.659 310.73 416.019 310.07C423.729 308.07 433.399 307.9 439.719 303.03C444.579 291.96 432.279 281.23 421.849 280.47ZM410.229 304.47C410.219 304.48 410.209 304.48 410.199 304.48C402.279 306.38 394.319 307.98 386.109 308.35C385.969 308.26 385.829 308.19 385.669 308.13C384.459 296.07 396.639 288.4 409.209 287H409.219C406.139 291.33 405.929 298.04 410.879 301.6C412.159 302.41 413.419 302.95 414.619 303.25C413.159 303.67 411.699 304.08 410.229 304.47ZM428.059 300.14C428.059 300.14 428.059 300.14 428.049 300.14C427.659 299.93 427.209 299.72 426.669 299.51C425.739 299.82 424.799 300.12 423.859 300.42C426.469 297.58 427.599 293.28 426.279 289.59C428.199 290.58 429.889 291.84 431.269 293.38C432.649 294.91 433.719 296.73 434.379 298.84C432.259 299.23 430.159 299.67 428.059 300.14Z" fill="#000003"></path> <path d="M428.689 279.39C425.689 278.81 422.959 276.3 419.699 275.82C414.099 274.35 408.139 274.68 402.499 275.79C392.679 277.77 384.509 283.62 378.849 291.81C378.349 292.47 377.429 293.58 376.599 292.73C376.599 292.73 376.599 292.73 376.589 292.73C375.959 292.03 376.479 291.18 377.049 290.64C386.809 273.5 410.949 265.8 428.449 275.38C430.289 276.04 430.669 278.67 428.689 279.39Z" fill="#000003"></path> <path d="M519.459 246.14C510.539 248.73 501.039 255.14 498.409 264.47C496.889 270.31 494.079 280.79 502.119 282.84C509.899 283.04 517.349 278.72 524.749 276.52C531.519 272.84 541.269 273.13 546.239 266.93C552.449 251.66 531.709 243.26 519.459 246.14ZM506.509 277.37C506.109 276.73 505.499 276.25 504.699 276.16C502.159 276.32 503.129 273.06 503.169 271.42C503.639 264.11 508.419 259 514.779 255.95C515.119 255.75 515.479 255.56 515.849 255.39C514.779 257.08 514.219 259.11 514.219 261.11C514.219 264.5 515.819 267.82 519.289 269.28C520.159 269.72 521.029 270.02 521.909 270.2C516.709 272.43 511.599 274.89 506.509 277.37ZM539.829 263.68C539.799 263.69 539.769 263.7 539.749 263.71C539.699 263.73 539.649 263.75 539.589 263.77C539.519 263.8 539.449 263.83 539.379 263.85C539.429 263.83 539.489 263.81 539.539 263.78C537.309 264.41 535.119 265.11 532.949 265.87C535.079 263.28 536.229 259.87 535.569 256.4C535.539 256.24 535.499 256.09 535.469 255.93C535.469 255.94 535.479 255.94 535.479 255.94C538.229 257.54 540.229 259.95 540.709 263.3C540.419 263.43 540.119 263.56 539.829 263.68Z" fill="#000003"></path> <path d="M445.48 252.91C444.81 256.24 437.17 259.97 418.46 262.78C395.17 268.5 373.76 280.38 350.99 287.67C350.53 288.93 348.65 289.4 347.93 288.11C344.89 288.52 341.26 287.38 340.44 284.1C339.27 273.92 351.66 268.69 358.68 263.74C373.71 254.86 390.53 249.44 407.58 246C408.67 245.81 409.77 245.64 410.86 245.5C422.23 242.46 436.05 237.16 445.43 245.41C446.91 247.66 446.72 250.58 445.48 252.91Z" fill="#000003"></path> <path d="M1230.36 54.4302C1256.07 40.5202 1281.98 27.0002 1308.5 14.7002C1308.71 14.6002 1308.93 14.4902 1309.15 14.3902C1309.16 14.3902 1309.17 14.3802 1309.18 14.3802C1321.07 11.3702 1321.5 -0.819778 1311.8 0.850221C1277.97 17.6402 1245.18 36.3802 1212.32 54.9702C1198.03 63.0202 1205.97 43.2202 1189.47 49.6102C1181.88 50.9002 1140.34 85.5702 1150.1 91.6802C1152.01 92.2002 1153.93 90.6702 1154.14 88.7002C1159.99 81.7402 1166.96 75.8102 1173.86 69.9202C1180.2 65.1402 1186.51 59.1802 1194.51 57.5802C1201.55 74.6802 1219.68 59.7302 1230.36 54.4302Z" fill="#000003"></path> <path d="M1347.48 203.76C1315.99 207.88 1284.23 218.03 1252.49 216.92C1248.39 176.14 1206.27 219.57 1187.97 224.82C1185.07 223.59 1183.74 228.34 1187.19 228.29C1204.72 227.02 1218.43 212.54 1235.66 209.92C1244.97 208.25 1241.38 218.95 1244.11 223.97C1257.62 235.07 1299.05 220.92 1317.32 220.28C1330.67 218.24 1344.05 216.4 1357.38 214.29C1363.68 212.35 1374.17 215.03 1376.28 206.9C1377.18 192.24 1355.62 203.96 1347.48 203.76Z" fill="#000003"></path> <path d="M1359.44 455.82C1340.94 450.99 1321.64 449.87 1303.18 444.79C1303.3 444.82 1303.43 444.86 1303.55 444.88C1282.46 438.92 1261.47 431.69 1242.46 420.66C1258.4 389.9 1227.07 388.95 1204.92 391.19C1202.1 392.61 1182.53 392.3 1182.53 396.12C1182.53 396.51 1182.73 396.95 1183.18 397.43C1200.47 399.02 1219.26 395.46 1235.56 403.01C1241.28 406.65 1234.03 414.34 1233.35 419.31C1230.65 424.72 1234.98 429.09 1239.6 431.33C1274.51 452.85 1314.61 461.53 1354.18 469.78C1362.11 472.32 1367.61 458.91 1359.44 455.82Z" fill="#000003"></path> <path d="M926.029 840.96C925.999 840.86 925.969 840.76 925.939 840.66C925.939 840.62 925.929 840.58 925.919 840.54C925.959 840.68 925.989 840.82 926.029 840.96Z" fill="#000003"></path> <path d="M1053.03 892.54C1052.9 892 1052.78 891.46 1052.64 890.92C1052.64 890.91 1052.63 890.9 1052.63 890.89C1046.24 865.86 1037.39 841.53 1027.9 817.52C1000.31 751.12 976.749 682.23 938.789 620.79C922.379 594.35 901.789 570.9 882.659 546.55C874.939 528.58 860.829 513.78 855.349 494.88C861.679 486.34 868.939 461.16 850.259 465.76C855.349 453.97 855.089 436.19 837.429 443.17C843.709 430.29 842.059 419.37 834.839 416.44C833.209 415.19 831.069 414.82 828.329 415.71C827.539 415.52 826.179 415.96 824.509 416.83C821.819 417.78 818.849 419.34 815.639 421.59C814.879 421.91 813.849 422.76 812.849 423.83C811.449 425.3 810.109 427.19 809.579 428.69C809.119 429.19 808.679 429.69 808.269 430.17C804.739 434.4 803.629 437.84 808.689 437.55C809.889 437.48 810.859 436.92 811.739 436.13C813.409 434.63 814.729 432.31 816.579 431.14C816.699 431.04 816.829 430.94 816.959 430.82C820.669 427.72 828.329 420.19 832.099 424.75C833.399 428.16 832.889 432.36 831.909 436.44C829.979 439.89 827.659 443.3 826.569 446.49C825.629 449.22 825.589 451.79 827.469 454.09C828.639 454.6 829.819 454.75 830.999 454.67C835.559 454.36 840.239 450.63 844.879 450.46C849.549 458.26 835.569 469.6 841.109 476.21C845.479 478.63 849.819 473.06 854.569 473.76C849.899 499.18 837.179 486.72 856.129 522.09C861.579 531.22 866.769 540.45 871.819 549.78C871.739 549.83 871.669 549.89 871.599 549.95C861.919 554.71 851.729 558.45 842.499 564.14C837.829 567.69 827.119 569.95 820.149 574.07C808.169 556.58 795.129 539.83 783.139 522.4C776.259 511.05 773.319 498.05 769.409 485.51C768.369 484.39 767.999 481.15 768.119 476.95C768.259 472.39 768.999 466.71 770.119 461.4C772.389 450.62 776.249 441.36 779.919 446.16C782.009 450.07 780.249 462 779.729 472.13C779.279 480.66 779.709 487.91 784.019 488.07C785.809 487.5 786.679 485.48 786.309 483.73C786.059 481.73 785.929 479.74 785.879 477.75C785.589 468.05 787.219 458.39 787.119 448.7C783.459 425.53 768.429 439.9 763.379 453.56C762.689 455.43 762.179 457.28 761.919 459.03C761.919 459.04 761.909 459.05 761.909 459.07C761.899 459.08 761.899 459.1 761.899 459.11C761.089 461.81 760.479 464.55 760.039 467.3C756.049 493 768.119 520.27 782.469 541.06C782.539 541.14 782.609 541.23 782.679 541.31L782.609 541.24C782.649 541.29 782.699 541.34 782.739 541.4C782.749 541.41 782.759 541.43 782.769 541.44C782.789 541.46 782.809 541.49 782.829 541.52C793.879 556 803.169 571.75 813.709 586.62C827.359 614.01 838.399 642.69 850.829 670.66C875.809 732.21 900.179 794.4 918.279 858.36C918.259 858.25 918.229 858.15 918.209 858.04C919.059 861.54 919.909 865.03 920.769 868.54C921.029 869.58 921.279 870.61 921.539 871.66C923.239 885.28 932.189 900.01 926.079 913.37C917.429 910.9 912.919 901.94 908.539 894.78C908.489 894.69 908.439 894.61 908.399 894.53C886.009 856.31 862.819 818.56 841.959 779.45C841.549 778.7 841.119 777.96 840.699 777.22C840.599 777.07 840.519 776.93 840.439 776.78C840.249 776.44 840.059 776.11 839.869 775.77C825.959 750.65 812.109 725.5 798.419 700.27C764.239 643.7 723.429 559.43 657.699 536.39C620.519 519.97 578.159 520.29 540.659 505.69C538.729 482.23 531.809 459.41 531.009 435.84C562.709 432.08 605.919 413.99 581.329 375.93C576.699 369.71 541.039 386.07 531.549 386.98C531.489 386.99 531.459 386.99 531.429 387C531.319 387.02 531.209 387.05 531.099 387.08C531.079 387.08 531.069 387.09 531.049 387.09C501.999 395.51 462.229 398.77 448.469 365.31C490.319 357.56 533.409 349.64 572.479 332.53C580.079 328.49 577.009 320.08 574.139 313.91C569.919 301.31 564.899 288.97 561.039 276.26C554.679 254.39 550.119 231.92 541.639 210.74C539.989 206.32 538.599 201.81 536.599 197.53C556.429 198.01 576.589 189.62 587.399 172.44C596.859 160.33 597.929 134.68 579.469 130.99C600.629 95.58 560.219 75.29 531.149 93.1C532.789 45.67 460.799 52.86 450.389 90.69C423.149 60.42 383.849 92.13 369.519 119.78C321.009 105.22 282.649 146.02 279.019 192.23C250.119 197.54 233.239 227.63 238.139 255.61C214.619 253.81 202.829 275.75 209.309 296.59C214.319 316.11 230.729 329.2 243.009 344.16C221.699 370.66 236.739 413.8 274.299 409.72C277.279 430.39 291.219 461.54 316.949 452.24C317.049 452.32 317.149 452.38 317.259 452.45C319.169 460.08 320.119 467.94 321.029 475.76C323.899 493.91 324.859 512.39 328.729 530.36C288.179 548.58 246.099 563.01 205.069 580.11C165.639 596.41 123.699 612.89 94.0792 644.75C24.5492 730 35.3593 848.94 41.6593 951.94C46.7493 1022.08 51.3593 1092.23 58.6893 1162.18C58.7593 1162.84 58.8293 1163.5 58.9093 1164.16C63.2893 1195.6 70.7693 1234.49 101.919 1249.34C103.249 1249.98 104.619 1250.57 106.029 1251.11C106.139 1251.16 106.249 1251.21 106.359 1251.26C92.5492 1252.29 83.5493 1267.21 121.479 1257.94C121.279 1258 121.079 1258.06 120.889 1258.11C121.569 1258.01 122.169 1257.84 122.709 1257.63C123.819 1257.99 124.939 1258.35 126.059 1258.68C137.789 1262.24 149.879 1264.43 162.219 1265.25C200.859 1272.06 239.939 1274.28 279.129 1274.11C308.979 1271.37 339.459 1274.59 368.769 1267.69C383.429 1264.29 398.489 1264.22 413.439 1263.5C444.849 1260.34 476.109 1255.8 507.659 1253.74C514.699 1253.23 521.739 1252.67 528.779 1252.14C554.079 1248.81 623.849 1254.26 640.459 1238.96C663.669 1236.55 686.569 1240.98 709.539 1243.56C718.439 1243.26 749.469 1256.99 741.019 1237.11C751.409 1241.76 778.579 1250.7 767.939 1229.12C788.559 1240.58 795.109 1223.19 781.069 1210.93C793.019 1218.93 806.679 1216.93 801.669 1201.31C802.669 1201.64 803.679 1201.73 804.449 1201.18C804.809 1200.93 805.109 1200.54 805.349 1199.98C827.329 1200.09 806.179 1187.1 794.809 1189.62C793.119 1187.51 791.309 1185.5 789.409 1183.58L789.399 1183.57C775.969 1170.02 757.649 1161.03 740.509 1153.46C747.019 1147.41 741.669 1136.7 741.819 1128.9C739.429 1104.17 737.649 1079.4 735.659 1054.64C730.929 988.63 733.819 922.31 725.639 856.53C759.869 911.95 786.839 972.03 826.389 1024.07C826.409 1024.1 826.429 1024.13 826.459 1024.15C848.899 1050.51 871.769 1084.63 909.119 1088.27C939.089 1092.05 970.979 1088.17 999.579 1078.74C1026.92 1070.16 1041.91 1044.71 1053.24 1020.13C1068.08 980.97 1061.15 932.75 1053.03 892.54ZM324.639 447.05C335.599 434.52 330.499 404.75 321.409 392.16C313.419 386.31 289.109 365.73 303.289 357.09C308.599 355.06 318.819 348.67 322.059 355.82C322.099 355.87 322.119 355.92 322.149 355.97C322.139 355.97 322.139 355.96 322.129 355.96C326.709 364.27 345.549 399.65 355.479 382.2C356.459 369.96 348.439 359.02 344.699 347.74C333.269 321.04 322.069 294.04 312.879 266.5C325.779 269.07 335.899 257.37 332.739 244.88C350.369 249.5 365.989 234.46 366.039 217.08C391.669 230.18 428.169 219.03 432.359 188.04C453.929 204.71 484.479 195.88 491.559 168.97C503.029 180.15 515.939 193.26 531.809 197.29C532.379 200.48 533.219 203.61 533.959 206.76C534.689 209.94 535.469 213.11 536.519 216.2C526.299 206.02 462.119 230.02 484.089 245.21C483.759 247.56 486.789 248.29 486.499 245.62C496.449 245.19 503.689 236.36 513.919 236.24C522.179 233.24 537.029 236.27 539.469 225.44C543.959 241.64 548.139 257.92 552.799 274.06C557.449 290.2 562.579 306.19 568.939 321.79C569.339 322.81 569.749 323.83 570.059 324.89C548.689 335.28 523.929 337.27 501.199 344.05C501.369 344.01 501.539 343.98 501.709 343.94C501.489 343.99 501.259 344.04 501.029 344.1C501.089 344.08 501.139 344.07 501.199 344.05C491.259 346.23 481.259 348.13 471.319 350.34C462.679 353.65 441.259 351.98 437.849 361.01C448.159 402.41 486.819 407.37 523.129 398.14C523.169 398.14 523.189 398.12 523.229 398.12H523.189C524.599 397.8 526.009 397.47 527.419 397.14C543.919 393.5 559.779 387.53 575.949 382.68C596.269 425.89 525.569 415.74 520.749 430.69C520.279 459.27 529.699 487 531.909 515.39C504.529 558.27 477.899 601.97 449.249 644.05C412.879 606.37 377.469 567.6 338.279 532.85C338.319 532.42 338.289 532 338.219 531.6C338.219 531.6 338.219 531.6 338.229 531.6C333.669 503.4 331.059 474.9 324.639 447.05ZM631.519 1182.31C628.519 1199.46 626.979 1216.75 625.079 1234.03C562.969 1242.64 499.579 1239.11 437.519 1249.51C409.649 1254.15 381.179 1252.6 353.679 1259.91C291.919 1263.92 229.529 1265.98 168.059 1256.54C163.599 1256.07 159.129 1255.7 154.659 1255.32H154.649C154.599 1255.31 154.569 1255.31 154.529 1255.31H154.599C153.419 1255.21 152.239 1255.11 151.049 1255C150.989 1255 150.949 1254.99 150.899 1254.99C136.439 1254.13 122.939 1248.64 109.699 1243.12L110.089 1243.3C109.919 1243.23 109.739 1243.15 109.569 1243.07C106.779 1241.82 104.049 1240.47 101.449 1238.87C60.1993 1211.14 68.2893 1118.28 60.6693 1072.28C55.7793 993.97 47.7292 915.6 48.0892 837.09C48.0992 836.97 48.0993 836.85 48.0993 836.74C48.1093 836.24 48.1093 835.73 48.1293 835.22C50.8993 756.84 67.7092 660.88 144.989 622.59C144.979 622.59 144.979 622.59 144.969 622.59C145.069 622.53 145.179 622.48 145.279 622.42C145.339 622.38 145.399 622.35 145.459 622.32C196.079 594.61 252.239 578.71 303.779 552.99C310.379 580.51 320.749 606.81 330.569 633.29C334.139 639.35 334.339 653.37 342.929 653.64C349.239 651.71 351.009 643.81 354.879 639.09C361.779 628.41 368.749 617.77 376.619 607.77C378.389 605.59 378.899 602.21 376.859 600C369.449 591.65 349.579 630.9 344.099 636.54C333.429 607.37 320.679 579 307.819 550.75C315.629 546.02 323.679 541.53 330.899 535.92C331.699 537.06 333.169 537.67 334.549 537.37C356.249 564.62 380.509 589.45 404.659 614.54C413.499 623.67 421.749 633.37 430.879 642.22C436.489 646.82 441.049 655 448.629 656.07C452.019 699.11 459.949 741.78 464.359 784.74C464.479 785.84 464.599 786.93 464.719 788.03C469.459 836.14 478.289 883.7 484.199 931.66C489.009 968.74 488.949 1006.14 491.279 1043.39C493.969 1073.81 495.749 1104.27 495.389 1134.82C437.969 1134.86 380.489 1136.89 323.499 1128.52C303.479 1124.66 278.969 1132.44 262.219 1119.05C253.059 1105.99 253.299 1088.6 249.999 1073.43C243.429 1040.76 243.429 1007.34 241.329 974.2C240.119 915.49 231.679 857.21 222.789 799.3C222.799 799.38 222.799 799.46 222.809 799.54C222.729 798.74 222.639 797.95 222.549 797.15C222.279 794.76 222.029 792.36 221.739 789.97C220.829 783.93 212.489 786.12 212.529 791.37C212.179 807.17 215.439 822.71 217.459 838.31C221.779 891.06 226.539 943.75 228.229 996.67C230.019 1036.04 233.829 1075.64 245.019 1113.57C253.189 1145.4 290.019 1138.22 315.059 1140.89C331.909 1142.22 348.639 1144.8 365.469 1146.38C455.899 1149.35 546.619 1145.42 636.729 1155.28C633.959 1164.06 632.939 1173.24 631.519 1182.31ZM262.219 1119.07C262.169 1119.01 262.109 1118.96 262.049 1118.9C262.089 1118.94 262.139 1118.98 262.179 1119.02C262.179 1119.03 262.189 1119.03 262.199 1119.04C262.199 1119.05 262.209 1119.06 262.219 1119.07ZM794.079 1207.04C786.679 1205.75 781.519 1199.59 774.759 1196.77C764.619 1192.29 754.119 1188.61 743.569 1185.23C735.899 1181.17 729.819 1189.56 738.249 1193.69C753.859 1201.47 771.489 1209.75 781.279 1224.74C770.639 1224.82 762.009 1215.09 751.909 1211.98C743.889 1208.53 735.239 1206.63 726.719 1204.9C722.539 1204.77 720.559 1211.47 724.289 1213.49C737.609 1217.57 752.999 1223.66 761.769 1234.74C746.449 1231.28 732.409 1223.74 717.069 1220.45C713.479 1220.48 711.489 1225.32 713.859 1227.93C719.619 1230.91 725.329 1234.29 730.579 1238.31C707.409 1231.78 683.239 1227.13 659.129 1226.27C653.129 1226.16 647.109 1226.05 641.119 1226.54C640.809 1203.12 644.729 1179.81 648.199 1156.67C648.209 1156.63 648.209 1156.6 648.219 1156.56C648.369 1155.57 648.549 1154.56 648.719 1153.56C672.259 1161 697.609 1153.98 721.419 1160.2C748.059 1168.81 781.039 1180.48 794.079 1207.04ZM1049.62 982.07C1049.18 1002.52 1041.24 1021.72 1029.87 1038.45C1021.87 1054.03 1006.83 1063.04 990.529 1068.03C959.779 1074.84 926.579 1079.76 895.869 1070.33C881.499 1063.87 869.559 1052.2 858.939 1040.75C811.889 987.82 781.959 923.05 746.529 862.39C740.289 852.32 733.919 842.34 728.119 832.01C724.599 827.1 722.779 815.59 714.559 819.07C705.429 824.97 713.349 838.01 712.859 846.86C715.459 871.56 718.249 896.26 719.539 921.08C721.089 997.71 722.429 1074.5 732.609 1150.56C706.009 1140.38 677.779 1148.47 650.389 1147.98C650.129 1147.52 649.659 1147.2 649.069 1147.17C648.859 1147.09 648.739 1146.87 648.589 1146.71C647.959 1145.96 647.459 1144.77 646.329 1144.92C629.399 1138.58 610.129 1141.44 592.349 1138.53C562.169 1135.91 531.979 1134.67 501.679 1134.9C501.549 1084.62 494.619 1034.75 493.819 984.48C491.369 931.43 481.849 879.1 475.559 826.44C470.119 768.98 465.169 711.32 451.909 655.03C462.539 646.73 467.419 633.1 474.479 621.94C474.459 622 474.429 622.05 474.399 622.1C474.559 621.82 474.719 621.55 474.879 621.28C474.939 621.16 475.019 621.04 475.089 620.92C496.719 584.86 522.519 551.12 543.079 514.57C545.159 515.8 547.379 516.83 549.589 517.83C549.659 517.86 549.719 517.89 549.789 517.92C559.059 522.15 568.919 524.8 578.869 526.87C569.539 557.61 558.069 587.65 547.989 618.15C537.519 606.56 525.119 597.1 512.059 588.61C512.989 587.18 511.719 585 509.979 585.8C496.239 585.25 510.239 594.86 513.709 599.16C522.479 607.6 531.179 616.06 539.469 624.99C542.849 627.91 546.259 634.84 551.509 631.72C559.319 621.94 560.839 607.88 565.999 596.48C573.809 574.18 582.189 552.08 588.979 529.44C626.109 540.09 668.529 544.14 696.229 573.97C696.239 573.98 696.239 573.98 696.249 573.99C697.119 574.8 697.979 575.62 698.859 576.44C698.869 576.45 698.869 576.45 698.879 576.46C728.129 604.2 749.919 638.53 769.919 673.26C769.919 673.26 769.919 673.27 769.929 673.27C769.939 673.29 769.949 673.32 769.959 673.34C769.969 673.34 769.969 673.34 769.969 673.35C769.979 673.38 769.999 673.41 770.019 673.43H770.009C770.019 673.44 770.029 673.45 770.039 673.47C775.359 683.12 781.099 692.52 786.619 702.06C802.139 730.15 817.249 758.5 833.019 786.46C833.109 786.62 833.199 786.79 833.299 786.96C833.339 787.03 833.379 787.1 833.419 787.17C851.559 820.09 870.129 852.82 890.759 884.25C899.059 896.36 904.379 911.72 917.409 919.68C952.049 935.15 928.459 856.58 926.189 841.68C926.189 841.67 926.189 841.67 926.189 841.66C926.109 841.32 926.029 840.99 925.939 840.66C917.549 811 907.909 781.58 896.659 752.88C896.659 752.9 896.669 752.92 896.669 752.93C896.339 752.1 896.019 751.27 895.689 750.45C895.679 750.43 895.679 750.41 895.669 750.39C875.469 693.91 852.779 638.04 826.079 584.31C832.509 580.92 839.719 575.6 843.859 574.99C847.399 572.17 868.549 564.86 877.139 558.29C893.339 578.01 910.039 597.47 923.929 619C946.109 652.35 962.599 689.21 977.939 726.1C977.839 725.85 977.739 725.59 977.639 725.34C987.629 749.63 998.139 773.7 1006.9 798.48C1007.03 798.82 1007.16 799.15 1007.3 799.49C1032.44 857.3 1052.64 918.23 1049.62 982.07Z" fill="#000003"></path> <path d="M1061.82 1182.28C1059.3 1191.64 1039.12 1187.5 1031.17 1189.51C978.62 1196.14 924.57 1194.1 869.89 1198.95C847.92 1199.36 825.93 1200.07 803.95 1199.96C803.71 1200.52 803.41 1200.91 803.05 1201.16L788.01 1183.56C789.91 1185.48 791.72 1187.49 793.41 1189.6C804.78 1187.08 816.87 1187.1 828.43 1185.08C875.26 1181.72 922.37 1183.83 969.24 1180.78C969.36 1180.78 969.49 1180.77 969.61 1180.77C969.67 1180.76 969.74 1180.76 969.8 1180.76C992.6 1180.58 1015.27 1177.9 1038.05 1177.46C1044.34 1178.71 1061.45 1173.09 1061.82 1182.28Z" fill="#FFC94B"></path> <path d="M126.06 1258.62C124.94 1258.29 123.82 1257.93 122.71 1257.57C122.17 1257.78 121.57 1257.95 120.89 1258.05C121.08 1258 121.28 1257.94 121.48 1257.88C83.5497 1267.15 44.0097 1263.09 5.42967 1266.38C1.04967 1266.32 -1.77033 1261.37 1.46967 1257.98C6.58967 1253.71 14.3197 1255.53 20.5297 1254.46C35.3197 1252.5 50.0997 1254.82 64.8697 1253.71C78.6797 1252.39 92.5497 1252.23 106.36 1251.2C106.25 1251.15 106.14 1251.1 106.03 1251.05C104.62 1250.51 103.25 1249.92 101.92 1249.28L126.06 1258.62Z" fill="#FFC94B"></path> </svg> 