<?xml version="1.0" encoding="UTF-8"?> <svg xmlns="http://www.w3.org/2000/svg" width="136" height="136" viewBox="0 0 136 136" fill="none"> <rect width="136" height="136" fill="#000003"></rect> <path fill-rule="evenodd" clip-rule="evenodd" d="M103.247 31.7705H31.7681V103.249H103.247V31.7705ZM44.508 77.4396C44.0026 77.4396 43.573 77.2712 43.2192 76.9343C42.8654 76.5889 42.6885 76.1786 42.6885 75.7037C42.6885 75.22 42.8654 74.8055 43.2192 74.46C43.573 74.1146 44.0026 73.9418 44.508 73.9418C45.0218 73.9418 45.4556 74.1146 45.8094 74.46C46.1716 74.8055 46.3528 75.22 46.3528 75.7037C46.3528 76.1786 46.1716 76.5889 45.8094 76.9343C45.4556 77.2712 45.0218 77.4396 44.508 77.4396ZM61.4271 77.1529H64.7123V58.5755H61.8188V70.5459C61.8188 71.7206 61.8609 72.554 61.9451 73.0462H61.8946C61.7935 72.839 61.5661 72.459 61.2123 71.9061L52.8477 58.5755H49.3478V77.1529H52.254V64.9752C52.254 63.6712 52.2203 62.8205 52.1529 62.4232H52.2287C52.3718 62.7945 52.553 63.153 52.772 63.4985L61.4271 77.1529ZM78.8642 77.1529H68.6928V58.5755H78.4599V61.1925H71.7001V66.4521H77.9293V69.0561H71.7001V74.549H78.8642V77.1529ZM88.1135 61.1925H93.3192V58.5755H79.9132V61.1925H85.1063V77.1529H88.1135V61.1925Z" fill="white"></path> </svg> 