<?xml version="1.0" encoding="UTF-8"?> <svg xmlns="http://www.w3.org/2000/svg" width="104" height="104" viewBox="0 0 104 104" fill="none"> <rect width="104" height="104" fill="#000003"></rect> <path d="M81.2211 51.9562C81.2211 48.0955 76.3863 44.4366 68.9736 42.1677C70.6842 34.6125 69.9239 28.6016 66.574 26.6771C65.8018 26.2257 64.899 26.0119 63.913 26.0119V28.661C64.4595 28.661 64.899 28.7679 65.2673 28.9698C66.8829 29.8964 67.5837 33.4246 67.0373 37.9624C66.9066 39.0791 66.6928 40.2551 66.4314 41.4549C64.1031 40.8847 61.5609 40.4452 58.8881 40.1601C57.2844 37.9624 55.6213 35.9667 53.9463 34.2205C57.819 30.621 61.454 28.6491 63.9249 28.6491V26C60.6581 26 56.3816 28.3283 52.0575 32.3673C47.7335 28.3521 43.4569 26.0475 40.1901 26.0475V28.6966C42.6491 28.6966 46.2961 30.6567 50.1687 34.2323C48.5056 35.9786 46.8425 37.9624 45.2626 40.1601C42.5779 40.4452 40.0357 40.8847 37.7073 41.4668C37.4341 40.2789 37.2322 39.1266 37.0896 38.0218C36.5313 33.4839 37.2203 29.9558 38.824 29.0173C39.1804 28.8035 39.6437 28.7085 40.1901 28.7085V26.0594C39.1923 26.0594 38.2894 26.2732 37.5054 26.7246C34.1673 28.6491 33.4189 34.6481 35.1414 42.1796C27.7525 44.4604 22.9414 48.1073 22.9414 51.9562C22.9414 55.817 27.7763 59.4758 35.1889 61.7448C33.4783 69.3 34.2386 75.3109 37.5886 77.2353C38.3607 77.6868 39.2635 77.9006 40.2614 77.9006C43.5282 77.9006 47.8047 75.5722 52.1288 71.5333C56.4528 75.5485 60.7294 77.8531 63.9962 77.8531C64.994 77.8531 65.8969 77.6392 66.6809 77.1878C70.019 75.2634 70.7674 69.2643 69.0449 61.7329C76.41 59.4639 81.2211 55.8051 81.2211 51.9562ZM65.7543 44.0328C65.3148 45.5652 64.7683 47.1451 64.1506 48.7251C63.6636 47.7747 63.1528 46.8244 62.5944 45.874C62.048 44.9237 61.4659 43.9971 60.8838 43.0943C62.5707 43.3438 64.1981 43.6526 65.7543 44.0328ZM60.3136 56.6842C59.387 58.2879 58.4367 59.8084 57.4507 61.2221C55.6807 61.3765 53.8869 61.4597 52.0813 61.4597C50.2875 61.4597 48.4937 61.3765 46.7356 61.234C45.7496 59.8203 44.7874 58.3116 43.8608 56.7198C42.958 55.1636 42.1383 53.5837 41.3899 51.9919C42.1264 50.4 42.958 48.8082 43.8489 47.252C44.7755 45.6483 45.7259 44.1278 46.7118 42.7142C48.4819 42.5597 50.2756 42.4766 52.0813 42.4766C53.875 42.4766 55.6688 42.5597 57.4269 42.7023C58.4129 44.1159 59.3752 45.6246 60.3017 47.2164C61.2046 48.7726 62.0242 50.3525 62.7726 51.9444C62.0242 53.5362 61.2046 55.128 60.3136 56.6842ZM64.1506 55.1399C64.7921 56.7317 65.3386 58.3235 65.79 59.8678C64.2338 60.248 62.5944 60.5687 60.8957 60.8182C61.4778 59.9035 62.0599 58.965 62.6063 58.0028C63.1528 57.0524 63.6636 56.0902 64.1506 55.1399ZM52.105 67.8151C51.0003 66.6747 49.8955 65.4036 48.8026 64.0137C49.8717 64.0612 50.9646 64.0969 52.0694 64.0969C53.186 64.0969 54.2908 64.0731 55.3718 64.0137C54.3027 65.4036 53.1979 66.6747 52.105 67.8151ZM43.2668 60.8182C41.58 60.5687 39.9525 60.2599 38.3963 59.8797C38.8359 58.3473 39.3823 56.7673 40 55.1874C40.4871 56.1377 40.9979 57.0881 41.5562 58.0384C42.1146 58.9888 42.6848 59.9154 43.2668 60.8182ZM52.0456 36.0974C53.1504 37.2378 54.2552 38.5089 55.3481 39.8988C54.2789 39.8512 53.186 39.8156 52.0813 39.8156C50.9646 39.8156 49.8599 39.8394 48.7788 39.8988C49.848 38.5089 50.9527 37.2378 52.0456 36.0974ZM43.255 43.0943C42.6729 44.009 42.0908 44.9475 41.5444 45.9097C40.9979 46.86 40.4871 47.8104 40 48.7607C39.3586 47.1689 38.8121 45.5771 38.3607 44.0328C39.9169 43.6645 41.5562 43.3438 43.255 43.0943ZM32.5042 57.9671C28.299 56.1734 25.5786 53.8213 25.5786 51.9562C25.5786 50.0912 28.299 47.7272 32.5042 45.9453C33.5258 45.5058 34.6425 45.1138 35.7948 44.7455C36.4719 47.0738 37.3628 49.4972 38.4676 51.98C37.3747 54.4509 36.4957 56.8624 35.8304 59.1788C34.6544 58.8106 33.5377 58.4067 32.5042 57.9671ZM38.8953 74.9426C37.2797 74.0161 36.5788 70.4879 37.1253 65.95C37.2559 64.8334 37.4698 63.6573 37.7311 62.4575C40.0594 63.0277 42.6016 63.4673 45.2745 63.7524C46.8782 65.95 48.5412 67.9457 50.2162 69.692C46.3436 73.2914 42.7085 75.2634 40.2376 75.2634C39.7031 75.2515 39.2517 75.1446 38.8953 74.9426ZM67.0729 65.8906C67.6312 70.4285 66.9422 73.9567 65.3385 74.8951C64.9822 75.109 64.5189 75.204 63.9724 75.204C61.5134 75.204 57.8665 73.2439 53.9938 69.6682C55.6569 67.922 57.32 65.9381 58.9 63.7405C61.5847 63.4554 64.1269 63.0158 66.4552 62.4338C66.7284 63.6336 66.9423 64.7859 67.0729 65.8906ZM71.6464 57.9671C70.6248 58.4067 69.5082 58.7987 68.3559 59.167C67.6788 56.8386 66.7878 54.4152 65.683 51.9325C66.7759 49.4616 67.655 47.0501 68.3202 44.7336C69.4963 45.1019 70.6129 45.5058 71.6583 45.9453C75.8636 47.7391 78.5839 50.0912 78.5839 51.9562C78.5721 53.8213 75.8517 56.1853 71.6464 57.9671Z" fill="white"></path> <path d="M52.0685 57.3826C55.0667 57.3826 57.4973 54.952 57.4973 51.9537C57.4973 48.9555 55.0667 46.5249 52.0685 46.5249C49.0702 46.5249 46.6396 48.9555 46.6396 51.9537C46.6396 54.952 49.0702 57.3826 52.0685 57.3826Z" fill="white"></path> </svg> 