<?xml version="1.0" encoding="UTF-8"?> <svg xmlns="http://www.w3.org/2000/svg" width="137" height="136" viewBox="0 0 137 136" fill="none"> <rect x="0.411133" width="136" height="136" fill="#000003"></rect> <path d="M68.4057 107.54C68.4024 107.54 68.3992 107.54 68.3959 107.54C67.2959 107.54 66.2672 107.24 65.3846 106.713L65.4138 106.729L55.8832 101.005C54.4619 100.194 55.1563 99.9104 55.6236 99.7423C57.2656 99.2183 58.6934 98.5394 60.0109 97.7055L59.933 97.7517C60.0238 97.7088 60.1277 97.6858 60.238 97.6858C60.3873 97.6858 60.5268 97.7319 60.6436 97.811L60.6404 97.8077L67.9611 102.221C68.0877 102.29 68.2402 102.333 68.4024 102.333C68.5647 102.333 68.7172 102.29 68.8502 102.217L68.8437 102.221L97.3802 85.4884C97.6431 85.3236 97.8151 85.0336 97.8151 84.704C97.8151 84.7007 97.8151 84.7007 97.8151 84.6974V51.2559C97.8118 50.9231 97.6366 50.6298 97.3737 50.4683L97.3705 50.465L68.8437 33.7492C68.7172 33.6767 68.5647 33.6338 68.4057 33.6338C68.2467 33.6338 68.0941 33.6767 67.9611 33.7525L67.9643 33.7492L39.4441 50.4683C39.1747 50.6298 38.9963 50.9231 38.993 51.2592V84.7073C38.993 85.0402 39.1715 85.3269 39.4376 85.4785L39.4408 85.4818L47.2613 90.0694C51.5025 92.2248 54.0985 89.6871 54.0985 87.1395V54.11C54.0985 53.6486 54.4684 53.2729 54.9227 53.2729H54.9324H58.5506H58.5539C59.0082 53.2729 59.3781 53.6453 59.3781 54.11V87.1395C59.3781 92.8905 56.2953 96.1895 50.9281 96.1895C50.8632 96.1895 50.7886 96.1928 50.7139 96.1928C48.3613 96.1928 46.1645 95.5172 44.3018 94.3472L36.8708 90.0035C35.0666 88.9225 33.8789 86.9616 33.8789 84.7139V51.2592C33.8822 49.0182 35.0731 47.0638 36.8448 46.0026L36.874 45.9861L65.4138 29.2374C66.2802 28.7463 67.3121 28.4596 68.4122 28.4596C69.5122 28.4596 70.5474 28.7496 71.443 29.2539L71.4105 29.2374L99.947 45.9861C101.748 47.0638 102.936 49.0182 102.942 51.2592V84.7106C102.939 86.955 101.748 88.9159 99.973 89.9837L99.9438 90.0002L71.4138 106.736C70.5571 107.247 69.5252 107.547 68.4219 107.547C68.4154 107.547 68.4057 107.547 68.3992 107.547L68.4057 107.54Z" fill="white"></path> <path d="M77.2231 84.5033C64.7364 84.5033 62.1177 78.6831 62.1177 73.7956V73.7923C62.1177 73.3309 62.4844 72.9585 62.9387 72.9585H62.9452H66.6347H66.638C67.0501 72.9585 67.3908 73.265 67.4557 73.6638V73.667C68.0106 77.4835 69.672 79.4082 77.2231 79.4082C83.2361 79.4082 85.7899 78.0273 85.7899 74.7876C85.7899 72.9189 85.0663 71.5347 75.7239 70.6053C67.9165 69.8144 63.0879 68.0677 63.0879 61.7234C63.0879 55.8769 67.9424 52.3867 76.0679 52.3867C85.2123 52.3867 89.7358 55.6099 90.307 62.5243C90.3102 62.5474 90.3102 62.5737 90.3102 62.5968C90.3102 63.0615 89.9403 63.4339 89.486 63.4339H85.8094C85.42 63.4339 85.0922 63.1538 85.0111 62.7814V62.7748C84.122 58.7606 81.9608 57.4786 76.1004 57.4786C69.5357 57.4786 68.7732 59.802 68.7732 61.5389C68.7732 63.6481 69.6753 64.2611 78.5374 65.4509C87.3053 66.6307 91.4719 68.2951 91.4719 74.5536C91.4589 80.878 86.2767 84.4967 77.2329 84.4967L77.2231 84.5033Z" fill="white"></path> </svg> 