<?xml version="1.0" encoding="UTF-8"?> <svg xmlns="http://www.w3.org/2000/svg" width="170" height="627" viewBox="0 0 170 627" fill="none"> <path d="M136.676 565.965C136.676 539.827 122.601 520.056 99.1446 512.684L92.1075 532.455C109.533 537.481 118.245 549.21 118.245 566.3C118.245 590.092 100.485 604.836 71.3315 604.836C42.8482 604.836 24.4178 589.421 24.4178 566.3C24.4178 549.21 33.1303 537.481 50.5554 532.455L43.5184 512.684C19.3913 520.056 5.98743 539.827 5.98743 565.965C5.98743 601.82 32.4602 626.617 71.3315 626.617C110.873 626.617 136.676 602.825 136.676 565.965Z" fill="#000003"></path> <path d="M135 493.999L135 473.893L0.960959 473.893L0.96096 493.999L135 493.999Z" fill="#000003"></path> <path d="M136.676 402.263C136.676 372.104 115.564 351.328 84.7354 351.328C53.2362 351.328 32.7952 371.434 32.7952 402.263C32.7952 432.421 53.9064 453.197 84.7354 453.197C116.235 453.197 136.676 433.092 136.676 402.263ZM119.586 402.263C119.586 420.693 105.847 432.756 84.7354 432.756C63.6242 432.756 49.8852 420.693 49.8852 402.263C49.8852 383.832 63.6242 371.769 84.7354 371.769C105.847 371.769 119.586 383.832 119.586 402.263Z" fill="#000003"></path> <path d="M20.3966 329.627L20.3966 307.51L0.290758 307.51L0.290759 329.627L20.3966 329.627ZM169.18 336.329C169.18 319.239 161.473 308.516 140.697 308.516L34.4707 308.516L34.4707 328.622L140.362 328.622C147.734 328.622 150.75 332.308 150.75 338.674C150.75 341.355 150.75 343.701 150.415 346.382L168.51 346.382C168.845 343.366 169.18 339.345 169.18 336.329Z" fill="#000003"></path> <path d="M34.4707 211.418L92.1075 211.418C108.192 211.418 119.586 224.151 119.586 239.901C119.586 253.64 109.868 262.018 92.7777 262.018L34.4707 262.018L34.4707 282.123L98.1393 282.123C121.261 282.123 136.676 267.044 136.676 245.598C136.676 230.518 129.974 217.785 119.25 210.077L135 208.737L135 191.312L34.4707 191.312L34.4707 211.418Z" fill="#000003"></path> <path d="M32.7952 109.293C32.7952 124.373 39.8323 137.107 50.5554 144.479L34.4707 145.819L34.4707 163.244L135 163.244L135 143.138L78.7036 143.138C62.6189 143.138 52.2309 131.075 52.2309 114.99C52.2309 110.634 52.566 105.942 52.9011 101.586L33.8005 101.586C33.1303 104.267 32.7952 106.613 32.7952 109.293Z" fill="#000003"></path> <path d="M91.1022 78.2098L91.1022 0.802181C88.7565 0.131986 87.081 0.132015 84.7354 0.132015C53.2362 0.132017 32.7952 19.2325 32.7952 48.7211C32.7952 78.2097 53.9064 98.3156 84.7354 98.3156C114.559 98.3156 136.675 80.2203 136.675 47.0456C136.675 25.9345 128.633 11.8604 118.58 3.48297L106.517 17.222C113.889 22.9186 119.586 32.3014 119.586 47.0456C119.586 64.8058 108.527 75.8641 91.1022 78.2098ZM49.5501 48.7211C49.5501 33.6417 59.2679 23.2537 75.6877 20.5729L75.6877 77.8746C59.603 74.8588 49.5501 64.4707 49.5501 48.7211Z" fill="#000003"></path> </svg> 