<?xml version="1.0" encoding="UTF-8"?> <svg xmlns="http://www.w3.org/2000/svg" width="137" height="136" viewBox="0 0 137 136" fill="none"> <rect x="0.205566" width="136" height="136" fill="#000003"></rect> <g clip-path="url(#clip0_963:2044)"> <path d="M66.1819 68.1725C65.809 68.981 65.4105 69.8751 64.9866 70.8249C63.4925 74.1906 61.8525 78.293 61.2456 80.9245C61.0047 82.0341 60.8842 83.1784 60.8958 84.3135C60.8958 84.8208 60.9329 85.3512 60.9676 85.8956C63.0686 86.667 65.348 87.1025 67.7247 87.1025C69.8257 87.1025 71.9105 86.7619 73.9026 86.1018C73.4324 85.6779 72.9969 85.2192 72.6123 84.7374C69.9693 81.3716 68.5099 76.4515 66.1819 68.1725V68.1725ZM56.4552 51.4849C51.2316 55.1542 48.1322 61.1282 48.1183 67.5077C48.1299 73.7806 51.1482 79.6806 56.2259 83.3614C57.4327 78.3556 60.4487 73.769 64.9727 64.5774C64.6948 63.8385 64.3959 63.0324 64.0554 62.1753C62.8022 59.0411 60.9908 55.3951 59.3762 53.7434C58.5168 52.8516 57.53 52.1034 56.4552 51.4849ZM84.7829 89.9841C82.1908 89.6598 80.0412 89.273 78.1741 88.6105C70.8727 92.2172 62.2254 91.8071 55.297 87.5148C48.3732 83.2178 44.1619 75.6546 44.1619 67.51C44.1619 60.7298 47.0806 54.2762 52.1976 49.8125C50.8564 49.4858 49.4827 49.3144 48.1044 49.3144C41.1922 49.377 33.907 53.1991 30.8632 63.5281C30.5852 65.0222 30.6594 66.1572 30.6594 67.51C30.6594 87.985 47.2474 104.573 67.7223 104.573C80.2566 104.573 91.3222 98.3464 98.0283 88.8143C94.4123 89.72 90.9122 90.1555 87.9309 90.1671C86.8098 90.1671 85.7604 90.1046 84.7806 89.9841H84.7829ZM77.822 82.8055C78.0537 82.9143 78.5725 83.1089 79.2837 83.2989C84.3266 79.6204 87.3078 73.7551 87.3194 67.5077C87.2939 56.6853 78.5355 47.9269 67.7131 47.913C65.626 47.913 63.5504 48.2535 61.5606 48.9137C65.5426 53.4377 67.4606 59.9307 69.3068 67.012V67.0236C69.3184 67.0352 69.9091 68.9879 70.9098 71.5939C71.9105 74.1883 73.3467 77.4221 74.9033 79.764C75.9295 81.3415 77.0506 82.4673 77.822 82.8032V82.8055ZM67.7131 30.4447C55.7695 30.4331 44.5487 36.1988 37.5994 45.9255C41.0995 43.7411 44.6692 42.9442 47.794 42.9697C52.1003 42.9813 55.4777 44.3202 57.1061 45.2375C57.5045 45.4529 57.8775 45.7077 58.2435 45.951C65.5171 42.752 73.9281 43.4515 80.5855 47.7948C87.243 52.1382 91.262 59.56 91.262 67.51C91.262 73.8084 88.7417 79.8404 84.2501 84.2695C85.3134 84.3899 86.4461 84.4617 87.6043 84.4478C91.7091 84.4478 96.1473 83.5421 99.4645 80.7577C101.635 78.9231 103.458 76.2453 104.459 72.2402C104.665 70.6835 104.774 69.1176 104.774 67.5124C104.774 47.0374 88.1857 30.4494 67.7108 30.4494L67.7131 30.4447Z" fill="white"></path> </g> <defs> <clipPath id="clip0_963:2044"> <rect width="74.126" height="74.126" fill="white" transform="translate(30.6504 30.4437)"></rect> </clipPath> </defs> </svg> 