<?xml version="1.0" encoding="UTF-8"?> <svg xmlns="http://www.w3.org/2000/svg" width="44" height="29" viewBox="0 0 44 29" fill="none"> <path fill-rule="evenodd" clip-rule="evenodd" d="M0.724552 5.90221C0 7.65482 0 9.87609 0 14.3186C0 18.7612 0 20.9824 0.724552 22.7351C1.69408 25.0802 3.55703 26.9432 5.90221 27.9127C7.65482 28.6373 9.8761 28.6373 14.3187 28.6373H29.5918C34.0344 28.6373 36.2556 28.6373 38.0083 27.9127C40.3534 26.9432 42.2164 25.0802 43.1859 22.7351C43.9105 20.9824 43.9105 18.7612 43.9105 14.3186C43.9105 9.87609 43.9105 7.65482 43.1859 5.90221C42.2164 3.55703 40.3534 1.69408 38.0083 0.724552C36.2556 0 34.0344 0 29.5918 0H14.3186C9.87609 0 7.65482 0 5.90221 0.724552C3.55703 1.69408 1.69408 3.55703 0.724552 5.90221ZM6.8819 9.104H6.68173V19.5105H6.90692C7.49877 19.5105 8.2072 19.5187 8.80641 19.5257L8.80678 19.5257L8.80726 19.5257C9.24632 19.5308 9.62667 19.5353 9.85941 19.5353C13.8878 19.5353 15.8895 17.1319 15.8895 14.2081C15.8895 11.4578 14.1881 9.05444 9.98451 9.05444C9.62949 9.05444 8.94278 9.06813 8.29116 9.08112L8.29094 9.08112C7.70269 9.09284 7.14305 9.104 6.8819 9.104ZM9.08376 17.2805V11.334C9.38401 11.2844 9.70928 11.2844 9.98451 11.2844C11.9362 11.2844 13.3624 12.3003 13.3624 14.2081C13.3624 16.1903 12.0362 17.3053 9.95949 17.3053C9.6092 17.3053 9.40903 17.3053 9.08376 17.2805ZM22.0194 8.92709C25.2221 8.92709 27.5991 10.9836 27.5991 14.3038C27.5991 17.4505 25.2221 19.6805 22.0194 19.6805C18.8167 19.6805 16.4397 17.6239 16.4397 14.3038C16.4397 11.2809 18.6916 8.92709 22.0194 8.92709ZM22.0194 17.4505C24.0211 17.4505 25.047 16.063 25.047 14.3038C25.072 12.3959 23.7209 11.157 22.0194 11.157C20.268 11.157 18.9919 12.3959 18.9919 14.3038C18.9919 16.0877 20.343 17.4505 22.0194 17.4505ZM32.7788 19.7054C35.0307 19.7054 37.0824 18.3922 37.0824 15.2207V9.10072H34.6804V14.7252C34.6804 16.3853 34.23 17.4507 32.7788 17.4507C31.1024 17.4507 30.602 16.2118 30.602 14.6013V9.10072H28.1999V15.1216C28.1999 18.1692 30.0765 19.7054 32.7788 19.7054Z" fill="#000003"></path> </svg> 