<?xml version="1.0" encoding="UTF-8"?> <svg xmlns="http://www.w3.org/2000/svg" width="31" height="31" viewBox="0 0 31 31" fill="none"> <path d="M15.4212 30.2458C15.321 30.2458 15.2208 30.2458 15.12 30.2453C12.7491 30.2511 10.5585 30.1909 8.42803 30.0612C6.47483 29.9423 4.69193 29.2674 3.2718 28.1094C1.90151 26.9921 0.965755 25.4813 0.490608 23.6196C0.0770758 21.9987 0.055153 20.4077 0.0341533 18.8687C0.0189228 17.7646 0.00323072 16.4562 0 15.1256C0.00323072 13.7895 0.0189228 12.4811 0.0341533 11.377C0.055153 9.83827 0.0770758 8.24719 0.490608 6.62612C0.965755 4.76437 1.90151 3.2536 3.2718 2.13627C4.69193 0.978327 6.47483 0.303361 8.42826 0.184521C10.5587 0.0550662 12.7498 -0.00539228 15.1258 0.000376663C17.4974 -0.00470001 19.6873 0.0550662 21.8178 0.184521C23.771 0.303361 25.5538 0.978327 26.974 2.13627C28.3445 3.2536 29.28 4.76437 29.7552 6.62612C30.1687 8.24696 30.1906 9.83827 30.2116 11.377C30.2269 12.4811 30.2428 13.7895 30.2458 15.1201V15.1256C30.2428 16.4562 30.2269 17.7646 30.2116 18.8687C30.1906 20.4074 30.1689 21.9985 29.7552 23.6196C29.28 25.4813 28.3445 26.9921 26.974 28.1094C25.5538 29.2674 23.771 29.9423 21.8178 30.0612C19.7776 30.1853 17.6817 30.2458 15.4212 30.2458V30.2458ZM15.12 27.8824C17.4524 27.8879 19.5939 27.8291 21.6742 27.7026C23.1511 27.6128 24.4316 27.1336 25.4807 26.2781C26.4504 25.4873 27.1182 24.3963 27.4655 23.0353C27.8098 21.6861 27.8297 20.2374 27.8488 18.8364C27.8638 17.7396 27.8795 16.4405 27.8827 15.1228C27.8795 13.805 27.8638 12.5061 27.8488 11.4093C27.8297 10.0083 27.8098 8.55964 27.4655 7.21017C27.1182 5.84916 26.4504 4.75814 25.4807 3.96733C24.4316 3.11214 23.1511 2.63286 21.6742 2.54309C19.5939 2.41641 17.4524 2.35803 15.1255 2.3631C12.7937 2.35757 10.6519 2.41641 8.57156 2.54309C7.09466 2.63286 5.81414 3.11214 4.76508 3.96733C3.7954 4.75814 3.12757 5.84916 2.78027 7.21017C2.43596 8.55964 2.41612 10.0081 2.39696 11.4093C2.38196 12.507 2.36627 13.8068 2.36304 15.1256C2.36627 16.4386 2.38196 17.7387 2.39696 18.8364C2.41612 20.2374 2.43596 21.6861 2.78027 23.0353C3.12757 24.3963 3.7954 25.4873 4.76508 26.2781C5.81414 27.1333 7.09466 27.6126 8.57156 27.7024C10.6519 27.8291 12.7941 27.8881 15.12 27.8824V27.8824ZM15.0637 22.5071C10.9921 22.5071 7.67919 19.1946 7.67919 15.1228C7.67919 11.0511 10.9921 7.7386 15.0637 7.7386C19.1356 7.7386 22.4482 11.0511 22.4482 15.1228C22.4482 19.1946 19.1356 22.5071 15.0637 22.5071V22.5071ZM15.0637 10.1016C12.295 10.1016 10.0422 12.3542 10.0422 15.1228C10.0422 17.8915 12.295 20.1441 15.0637 20.1441C17.8327 20.1441 20.0852 17.8915 20.0852 15.1228C20.0852 12.3542 17.8327 10.1016 15.0637 10.1016V10.1016ZM23.2753 5.37564C22.2966 5.37564 21.503 6.16899 21.503 7.14786C21.503 8.12674 22.2966 8.92008 23.2753 8.92008C24.2542 8.92008 25.0475 8.12674 25.0475 7.14786C25.0475 6.16899 24.2542 5.37564 23.2753 5.37564Z" fill="#000003"></path> </svg> 