<?xml version="1.0" encoding="UTF-8"?> <svg xmlns="http://www.w3.org/2000/svg" width="155" height="886" viewBox="0 0 155 886" fill="none"> <path d="M108.565 766.769L108.565 781.848L0.663081 781.848L0.663082 802.959L108.565 802.959L108.565 863.947L0.663085 863.947L0.663086 885.058L128 885.058L128 787.545L154.808 787.545L154.808 766.769L108.565 766.769Z" fill="#000003"></path> <path d="M84.1024 737.025L84.1024 659.618C81.7567 658.947 80.0812 658.947 77.7355 658.947C46.2364 658.947 25.7954 678.048 25.7954 707.537C25.7954 737.025 46.9066 757.131 77.7355 757.131C107.559 757.131 129.676 739.036 129.676 705.861C129.676 684.75 121.633 670.676 111.58 662.298L99.5169 676.037C106.889 681.734 112.586 691.117 112.586 705.861C112.586 723.621 101.527 734.68 84.1024 737.025ZM42.5503 707.537C42.5503 692.457 52.2681 682.069 68.6879 679.388L68.6879 736.69C52.6032 733.674 42.5503 723.286 42.5503 707.537Z" fill="#000003"></path> <path d="M27.4709 569.892L67.6826 569.892L67.6826 618.816L27.4709 618.816L27.4709 638.922L128 638.922L128 618.816L85.7779 618.816L85.7779 569.892L128 569.892L128 549.786L27.4709 549.786L27.4709 569.892Z" fill="#000003"></path> <path d="M27.4709 452.688L67.6826 452.688L67.6826 501.612L27.4709 501.612L27.4709 521.718L128 521.718L128 501.612L85.7779 501.612L85.7779 452.688L128 452.688L128 432.582L27.4709 432.582L27.4709 452.688Z" fill="#000003"></path> <path d="M129.676 360.952C129.676 330.793 108.565 310.017 77.7355 310.017C46.2363 310.017 25.7954 330.123 25.7954 360.952C25.7954 391.111 46.9065 411.887 77.7355 411.887C109.235 411.887 129.676 391.781 129.676 360.952ZM112.586 360.952C112.586 379.382 98.8467 391.446 77.7355 391.446C56.6244 391.446 42.8854 379.382 42.8854 360.952C42.8854 342.521 56.6244 330.458 77.7355 330.458C98.8467 330.458 112.586 342.521 112.586 360.952Z" fill="#000003"></path> <path d="M129.676 246.429C129.676 224.983 118.617 207.222 99.5169 201.526L93.4851 220.626C105.214 224.983 112.586 234.365 112.586 246.429C112.586 264.859 98.8467 276.253 77.7355 276.253C56.6244 276.253 42.8854 264.859 42.8854 246.429C42.8854 234.03 50.2575 224.983 61.9859 220.626L55.9542 201.526C36.8536 207.222 25.7954 224.648 25.7954 246.429C25.7954 276.253 46.9065 296.694 77.7355 296.694C108.565 296.694 129.676 276.253 129.676 246.429Z" fill="#000003"></path> <path d="M27.4709 105.433L27.4709 197.92L45.231 197.92L45.231 161.73L128 161.73L128 141.624L45.231 141.624L45.231 105.433L27.4709 105.433Z" fill="#000003"></path> <path d="M27.4709 21.069L99.852 69.9933L27.4709 69.9933L27.4709 89.764L128 89.764L128 68.988L54.9489 20.0637L128 20.0637L128 0.292963L27.4709 0.292968L27.4709 21.069Z" fill="#000003"></path> </svg> 