<?xml version="1.0" encoding="UTF-8"?> <svg xmlns="http://www.w3.org/2000/svg" width="137" height="136" viewBox="0 0 137 136" fill="none"> <rect x="0.0136719" width="136" height="136" fill="#000003"></rect> <path d="M86.1858 85.2562C86.6672 81.2396 86.5229 80.6506 89.5105 81.3012L90.2689 81.3679C92.5661 81.4726 95.5712 80.9979 97.3366 80.1766C101.137 78.4107 103.391 75.4624 99.6431 76.2371C91.0952 78.003 90.5076 75.1045 90.5076 75.1045C99.5337 61.6932 103.307 44.6689 100.05 40.5016C91.1668 29.135 75.7902 34.51 75.5329 34.6496L75.451 34.6647C73.762 34.3138 71.8718 34.1041 69.7485 34.0698C65.8803 34.0061 62.9451 35.0853 60.7186 36.7764C60.7186 36.7764 33.2875 25.4593 34.5637 51.0088C34.8351 56.444 42.3434 92.1355 51.2985 81.355C54.5716 77.4129 57.7347 74.0798 57.7347 74.0798C59.3053 75.1247 61.1858 75.6578 63.1581 75.4663L63.3105 75.3361C63.2628 75.8256 63.2838 76.3043 63.3715 76.871C61.065 79.4523 61.7427 79.9055 57.1305 80.8561C52.4642 81.8192 55.2057 83.5339 56.995 83.982C59.1649 84.5254 64.1847 85.2951 67.5774 80.5401L67.4423 81.0827C68.3473 81.8077 68.2861 86.2936 68.4144 89.4988C68.5429 92.7041 68.7572 95.6951 69.4096 97.4586C70.0621 99.2218 70.8319 103.764 76.8935 102.463C81.9595 101.376 85.8328 99.8113 86.1858 85.256" fill="white"></path> <path d="M86.1858 85.2562C86.6672 81.2396 86.5229 80.6506 89.5105 81.3012L90.2689 81.3679C92.5661 81.4726 95.5712 80.9979 97.3366 80.1766C101.137 78.4107 103.391 75.4624 99.6431 76.2371C91.0952 78.003 90.5076 75.1045 90.5076 75.1045C99.5337 61.6932 103.307 44.6689 100.05 40.5016C91.1668 29.135 75.7902 34.51 75.5329 34.6496L75.451 34.6647C73.762 34.3138 71.8718 34.1041 69.7485 34.0698C65.8803 34.0061 62.9451 35.0853 60.7186 36.7764C60.7186 36.7764 33.2875 25.4593 34.5637 51.0088C34.8351 56.444 42.3434 92.1355 51.2985 81.355C54.5716 77.4129 57.7347 74.0798 57.7347 74.0798C59.3053 75.1247 61.1858 75.6578 63.1581 75.4663L63.3105 75.3361C63.2628 75.8256 63.2838 76.3043 63.3715 76.871C61.065 79.4523 61.7427 79.9055 57.1305 80.8561C52.4642 81.8192 55.2057 83.5339 56.995 83.982C59.1649 84.5254 64.1847 85.2951 67.5774 80.5401L67.4423 81.0827C68.3473 81.8077 68.2861 86.2936 68.4144 89.4988C68.5429 92.7041 68.7572 95.6951 69.4096 97.4586C70.0621 99.2218 70.8319 103.764 76.8935 102.463C81.9595 101.376 85.8328 99.8113 86.1858 85.256" stroke="white" stroke-width="5.20381"></path> <path d="M99.6448 76.237C91.0961 78.0029 90.5084 75.1044 90.5084 75.1044C99.5345 61.6923 103.308 44.6676 100.052 40.5009C91.1683 29.1349 75.791 34.5103 75.5344 34.6498L75.4518 34.6646C73.7628 34.3135 71.8727 34.1044 69.7483 34.0697C65.8801 34.0062 62.9459 35.0852 60.7194 36.776C60.7194 36.776 33.2879 25.4594 34.5637 51.0088C34.8351 56.4442 42.3432 92.1357 51.2987 81.3552C54.5719 77.4132 57.7345 74.08 57.7345 74.08C59.3053 75.125 61.1858 75.658 63.1572 75.4666L63.3103 75.3364C63.2627 75.8258 63.2845 76.3046 63.3717 76.8713C61.0646 79.4525 61.7425 79.9057 57.1306 80.8564C52.464 81.8195 55.2055 83.5341 56.9954 83.9822C59.1653 84.5256 64.1854 85.2954 67.5774 80.5404L67.4421 81.0829C68.3461 81.8079 68.9808 85.799 68.8744 89.4168C68.768 93.0348 68.697 95.5187 69.4093 97.4589C70.1215 99.399 70.8314 103.764 76.8941 102.463C81.9601 101.376 84.5853 98.559 84.9506 93.8596C85.2097 90.5186 85.7962 91.0125 85.8333 88.0255L86.3037 86.6115C86.8462 82.0826 86.3898 80.6215 89.511 81.3011L90.2694 81.3678C92.5666 81.4725 95.5732 80.9978 97.3378 80.1765C101.137 78.4106 103.391 75.4623 99.6445 76.237H99.6448Z" fill="white"></path> <path d="M67.9422 78.8344C67.7068 87.2614 68.0013 95.7471 68.8247 97.8094C69.6487 99.8717 71.4119 103.883 77.4751 102.582C82.5406 101.495 84.3837 99.3903 85.1835 94.745C85.7725 91.3273 86.9081 81.8356 87.0538 79.8909" stroke="black" stroke-width="1.7346" stroke-linecap="round" stroke-linejoin="round"></path> <path d="M60.6763 36.5901C60.6763 36.5901 33.226 25.355 34.5021 50.9044C34.7735 56.3399 42.2822 92.0326 51.2375 81.2516C54.51 77.309 57.4697 74.2169 57.4697 74.2169" stroke="black" stroke-width="1.7346" stroke-linecap="round" stroke-linejoin="round"></path> <path d="M75.5058 34.5406C74.5556 34.8389 90.7753 28.6029 99.9932 40.3979C103.249 44.5648 99.476 61.5895 90.45 75.002" stroke="black" stroke-width="1.7346" stroke-linecap="round" stroke-linejoin="round"></path> <path d="M90.4466 75.0066C90.4466 75.0066 91.0347 77.906 99.5837 76.1389C103.329 75.3642 101.075 78.3129 97.2763 80.0796C94.1586 81.5286 87.1688 81.8999 87.0545 79.8977C86.7607 74.7316 90.7334 76.3011 90.4467 75.0066C90.1875 73.8409 88.4109 72.6967 87.2357 69.8435C86.2097 67.3531 73.1646 48.2554 90.8534 51.0917C91.5014 50.9575 86.24 34.2428 69.6858 33.971C53.1353 33.6993 53.6783 54.353 53.6783 54.353" stroke="black" stroke-width="1.7346" stroke-linecap="round" stroke-linejoin="bevel"></path> <path d="M63.3104 76.7718C61.003 79.3528 61.6816 79.806 57.0694 80.757C52.4028 81.7203 55.1445 83.4346 56.9339 83.8825C59.1038 84.4263 64.124 85.196 67.516 80.4398C68.5489 78.9917 67.5098 76.6811 66.0909 76.092C65.4054 75.8077 64.4887 75.4513 63.3104 76.7718V76.7718Z" stroke="black" stroke-width="1.7346" stroke-linecap="round" stroke-linejoin="round"></path> <path d="M63.1584 76.7208C62.9259 75.2032 63.6564 73.3974 64.4392 71.2847C65.6155 68.1148 68.3298 64.9443 66.1585 54.889C64.5401 47.3958 53.685 53.3296 53.6782 54.3456C53.6715 55.3613 54.1692 59.4955 53.4968 64.3097C52.6196 70.5918 57.4886 75.9049 63.0954 75.3613" stroke="black" stroke-width="1.7346" stroke-linecap="round" stroke-linejoin="round"></path> <path d="M60.5767 54.1983C60.5277 54.5453 61.2111 55.4713 62.1022 55.5951C62.9917 55.7193 63.753 54.9957 63.8013 54.649C63.8496 54.302 63.1671 53.9197 62.2757 53.7955C61.3856 53.6711 60.6239 53.8522 60.5769 54.1983H60.5767Z" fill="black" stroke="black" stroke-width="0.578196"></path> <path d="M87.669 53.4866C87.7173 53.8336 87.0348 54.7596 86.1435 54.8833C85.2534 55.0076 84.492 54.2839 84.4432 53.9373C84.3961 53.5902 85.0788 53.208 85.9692 53.0838C86.8595 52.9595 87.6207 53.1404 87.669 53.4868V53.4866Z" fill="black" stroke="black" stroke-width="0.289098"></path> <path d="M90.8515 51.0874C90.9982 53.8094 90.266 55.6634 90.1738 58.561C90.0371 62.7728 92.179 67.5935 88.9517 72.4202" stroke="black" stroke-width="1.7346" stroke-linecap="round" stroke-linejoin="round"></path> </svg> 