<?xml version="1.0" encoding="UTF-8"?> <svg xmlns="http://www.w3.org/2000/svg" width="105" height="104" viewBox="0 0 105 104" fill="none"> <rect x="0.616699" width="104" height="104" fill="#000003"></rect> <g clip-path="url(#clip0_963:2084)"> <path d="M79.5209 24.3301H25.7085V78.1424H79.5209V24.3301Z" fill="white"></path> <path d="M61.8558 66.3687C62.9397 68.1386 64.35 69.4395 66.8441 69.4395C68.9394 69.4395 70.2779 68.3922 70.2779 66.9453C70.2779 65.2113 68.9027 64.5972 66.5964 63.5884L65.3323 63.046C61.6833 61.4915 59.2591 59.544 59.2591 55.4269C59.2591 51.6344 62.1488 48.7473 66.6648 48.7473C69.8798 48.7473 72.1912 49.8663 73.8568 52.7961L69.9191 55.3244C69.0521 53.7698 68.1168 53.1574 66.6648 53.1574C65.1836 53.1574 64.2449 54.0969 64.2449 55.3244C64.2449 56.8414 65.1845 57.4555 67.3541 58.3951L68.6182 58.9366C72.9147 60.7791 75.3405 62.6574 75.3405 66.8804C75.3405 71.4331 71.7641 73.9272 66.9611 73.9272C62.265 73.9272 59.231 71.6893 57.7464 68.7561L61.8558 66.3687ZM43.9927 66.8069C44.7871 68.2163 45.5097 69.4079 47.247 69.4079C48.9084 69.4079 49.9565 68.7578 49.9565 66.2304V49.036H55.0131V66.2987C55.0131 71.5347 51.9432 73.9178 47.4623 73.9178C43.4136 73.9178 41.0689 71.8226 39.8765 69.2989L43.9927 66.8069Z" fill="black"></path> </g> <defs> <clipPath id="clip0_963:2084"> <rect width="53.8124" height="53.8124" fill="white" transform="translate(25.709 24.3298)"></rect> </clipPath> </defs> </svg> 